<?xml version="1.0" standalone="no"?>
<!DOCTYPE svg PUBLIC "-//W3C//DTD SVG 1.1//EN" "http://www.w3.org/Graphics/SVG/1.1/DTD/svg11.dtd" >
<svg xmlns="http://www.w3.org/2000/svg" xmlns:xlink="http://www.w3.org/1999/xlink" version="1.1">
<metadata></metadata>
<defs>
<font id="metropolis1920regular" horiz-adv-x="1024" >
<font-face units-per-em="2048" ascent="1536" descent="-512" />
<missing-glyph horiz-adv-x="425" />
<glyph horiz-adv-x="0" />
<glyph unicode="&#xd;" horiz-adv-x="0" />
<glyph unicode=" "  horiz-adv-x="425" />
<glyph unicode="&#x09;" horiz-adv-x="425" />
<glyph unicode="&#xa0;" horiz-adv-x="425" />
<glyph unicode="!" horiz-adv-x="456" d="M-35 0v70h246v-70h-246zM-35 176v70h246v-70h-246zM-35 373v1263h70v-1263h-70zM141 373v1263h70v-1263h-70z" />
<glyph unicode="&#x22;" horiz-adv-x="307" d="M-70 1393v245h70v-245h-70zM106 1393v245h70v-245h-70z" />
<glyph unicode="$" horiz-adv-x="970" d="M-111 221l56 47q61 -72 143 -123q66 -43 131 -59v117q-100 43 -190 139l55 49q63 -72 135 -108v491q-123 66 -192 139q-88 94 -109 224q-6 35 -6 67q0 98 43 180q57 117 168 181q39 23 96 41v96h74v-80q45 4 63 4q31 0 47 -2v78h74v-92q121 -39 207 -119q55 -53 76 -90 l-62 -41q-8 14 -16 23.5t-14 17.5l-35 37q-76 68 -156 94v-117q88 -43 127 -115l-63 -38q-23 37 -64 65v-399q117 -76 170 -123q94 -88 135 -195q23 -59 23 -149q0 -84 -26.5 -164t-80.5 -143q-86 -98 -204 -136q-14 -4 -17 -6v-114h-74v98q-37 -4 -57 -4q-16 0 -53 4v-98 h-74v110q-92 25 -170 74q-92 61 -160 139zM-14 1200q0 -135 96 -235q31 -37 76 -68l61 -37q45 -29 88 -49q70 -37 96 -55q37 -20 74 -49q51 -41 83 -78t48 -80q12 -39 13 -84q0 -41 -5 -62q-12 -76 -61 -131q-33 -43 -78 -63q-61 -31 -133 -31q-18 0 -51 4v-110q33 -4 55 -4 q76 0 129 22q111 43 164 111q43 53 67.5 120.5t24.5 139.5q0 66 -20 125q-29 88 -115 166q-45 39 -90 67.5t-133 79.5q-12 6 -84 47q-41 25 -54.5 34t-17.5 11q-25 16 -55 47q-55 57 -64 127q-4 25 -4 39q0 49 25 99q47 102 172 131q23 8 57 8q16 0 53 -4v112q-16 2 -47 2 q-106 0 -197 -53t-139 -147q-35 -74 -34 -152zM170 1200l2 -22q8 -45 45 -88l2 -3v226q-21 -14 -33 -43q-16 -37 -16 -70zM293 258l8 -2q29 -4 41 -4q20 0 61 8v408q-14 10 -110 67v-477zM293 1034l35 -20l75 -43v391q-24 6 -47 6q-29 0 -63 -10v-324zM477 297q7 4 21 22 q23 27 36 66t13 78t-10 63q-12 39 -60 86v-315z" />
<glyph unicode="&#x26;" horiz-adv-x="1021" d="M-55 281v366q0 90 53 162q-49 49 -53 158v385q0 31 10 75q20 72 68 117q39 45 106 74q66 25 137 18q70 -10 126.5 -46t90.5 -93q41 -68 41 -139v-387q0 -90 -51 -162l16 -27l33 80h76l-76 -182l-67 -164l-105 -248q-29 -70 -88 -88q-16 -4 -26 -4q-20 0 -48 10 q-33 16 -49 41q-18 29 -18 64v356q0 27 16 55q-57 23 -92 54q-31 -55 -31 -109v-356q0 -59 31 -113q35 -55 94 -84q39 -23 94 -22q70 0 125.5 39t83.5 104l29 72l53 125l189 450h75l-251 -602q10 -10 22 -12h6q10 0 19 2q27 6 28 33v102h70v-96q0 -47 -35 -79t-80 -32 q-31 0 -59 17q-23 -61 -53 -93q35 -18 67 -26q29 -4 45 -4q41 0 86 16q57 27 95 74q41 59 40 127v96h70v-96q-2 -57 -18 -99q-20 -59 -64 -102q-45 -45 -100 -65q-47 -20 -105 -21q-92 0 -170 51q-14 -12 -55 -30q-63 -27 -143 -21q-74 10 -129 47q-53 39 -88 92 q-37 61 -41 140zM14 975q0 -55 26 -102.5t73 -79.5q29 -18 67 -29q12 -4 37 -6t37 -4q37 -6 61 -31q33 -33 33 -80v-197l103 242q-4 10 -10.5 30.5t-16.5 37.5q-29 47 -82 76.5t-113 29.5q-53 0 -88 47q-16 20 -20 66v377q0 33 18 59q14 25 41 38t56 13q14 0 22 -2 q35 -8 59.5 -32.5t30.5 -59.5v-397q0 -27 -16 -56q57 -23 92 -53q31 55 31 109v379q0 39 -13 71q-18 39 -32 60q-43 55 -105 75q-41 10 -69 11q-37 0 -72 -13q-61 -18 -105 -73q-45 -57 -45 -129v-377zM190 285q0 -16 13.5 -26.5t32.5 -10.5q14 0 27 11t16 28v358 q0 16 -12.5 27.5t-30.5 13.5q-18 0 -32 -11t-14 -28v-362zM190 969q0 -2 5 -15q14 -27 49 -20q35 12 35 37v383q-1 2 -5 14q-16 31 -49 23q-14 -4 -24.5 -15.5t-10.5 -23.5v-383z" />
<glyph unicode="'" horiz-adv-x="327" d="M-70 1393v245h70v-245h-70zM106 1393v245h70v-325z" />
<glyph unicode="," horiz-adv-x="421" d="M-53 0v246h69v-246h-69zM106 -154v400h70v-459z" />
<glyph unicode="-" horiz-adv-x="501" d="M-70 649v68h367v-68h-367z" />
<glyph unicode="." horiz-adv-x="374" d="M-70 0v246h70v-246h-70zM106 0v246h70v-246h-70z" />
<glyph unicode="/" horiz-adv-x="729" d="M-39 0l365 1636h71l-364 -1636h-72zM141 0l365 1636h72l-353 -1636h-84z" />
<glyph unicode="0" horiz-adv-x="778" d="M-47 285v1067q0 88 53 164q51 70 131 100q43 20 107 20q59 0 106 -20q82 -33 131 -100q51 -72 51 -164v-1067q0 -92 -51 -164q-45 -63 -131 -103q-51 -18 -106 -18q-57 0 -107 18q-80 33 -131 103q-53 76 -53 164zM23 285q0 -70 40 -123q35 -49 99 -78q35 -14 82 -14 q49 0 80 14q61 25 100 78t39 123v1067q0 70 -39 123t-100 77q-31 14 -80 15q-47 0 -82 -15q-63 -29 -99 -77q-41 -53 -40 -123v-1067zM129 285v1067q0 45 36 77.5t79 32.5q45 0 77.5 -31.5t34.5 -78.5v-1067q0 -43 -32.5 -77t-79.5 -34q-45 0 -77 31t-38 80zM199 285 q0 -14 13 -26.5t32 -12.5q37 0 43 39v1067q0 14 -12.5 26.5t-30.5 12.5t-31.5 -11.5t-13.5 -27.5v-1067z" />
<glyph unicode="1" horiz-adv-x="612" d="M-119 1229v69h64q51 0 86 5.5t82 17.5v121q0 -2 -2 -2q-37 -18 -72 -25.5t-94 -9.5h-64v80h94q49 0 82 24q31 23 43.5 52.5t12.5 74.5h69v-274q59 47 84 131q23 66 23 143h69v-1636h-69v1372l-4 -4q-18 -27 -72 -72l-31 -18v-1278h-69v1247q-37 -10 -70 -13t-98 -5h-64z " />
<glyph unicode="2" horiz-adv-x="794" d="M-98 0q16 51 209 614q201 578 204 607q4 51 2 82l-4 45q-2 14 -14 24t-27 10q-16 0 -30.5 -8t-14.5 -26v-236h-71v236q0 33 22 59q16 23 41 35t51 12q31 0 57.5 -15.5t43.5 -43.5q20 -43 20 -111q0 -39 -6 -74q-4 -20 -56.5 -176.5t-109.5 -320.5l-160 -459h119l152 444 l51 154q23 72 64.5 197t43.5 143q4 37 5 65q0 45 -3.5 81t-3.5 38q-12 57 -44.5 103.5t-86.5 68.5q-41 18 -84 19q-90 0 -156.5 -60.5t-72.5 -154.5v-240h-70v242q0 98 61.5 171.5t160.5 100.5q31 10 75 10q57 0 113 -22q72 -29 120 -89.5t62 -138.5q0 -6 4 -49t4 -92 q0 -27 -4 -63q-4 -25 -102 -318q-18 -53 -32.5 -97t-26.5 -77q-68 -197 -154 -436h324v-78h-349l-36 -106h385v-70h-676zM0 70h119l37 106h-121z" />
<glyph unicode="3" horiz-adv-x="778" d="M-47 272v228h70v-219q0 -74 43 -125q41 -53 104 -74q31 -12 68 -12q16 0 61 8q63 14 111 65q51 57 51 133v371q0 59 -27 105q-37 -33 -92 -52q12 -23 14 -47v-374q0 -39 -26 -68q-35 -35 -88 -35q-10 0 -31 4q-31 6 -55 31q-25 25 -29 70v219h72v-224q0 -14 14 -22 q16 -8 29 -8q12 0 24 6q18 6 21 24v373q-2 14 -12.5 24.5t-24.5 10.5h-123v72h125q78 0 137 51q-51 51 -143 53h-119v72h123q31 0 37 31v389q0 16 -13.5 27.5t-31.5 11.5q-16 0 -29.5 -11.5t-13.5 -27.5v-234h-72v234q2 41 34 74.5t83 33.5q43 0 75.5 -31.5t36.5 -76.5v-391 q0 -18 -12 -48q61 -27 90 -53q27 47 27 98v396q0 61 -35 114t-102 82q-43 16 -80 17q-27 0 -62 -11q-70 -18 -112 -73q-47 -59 -47 -131v-234h-70v234q0 41 8 67q16 68 62 119q51 55 110 76q57 23 109 22q20 0 30 -2q72 -6 131 -47q53 -35 91 -96q39 -63 38 -137v-398 q-4 -84 -49 -151q4 -4 11 -19q37 -70 38 -139v-371q0 -30 -10 -71q-23 -72 -71 -121q-45 -45 -111 -68q-45 -16 -96 -16q-84 0 -158 43q-55 35 -92 90q-37 61 -41 139z" />
<glyph unicode="4" horiz-adv-x="796" d="M-109 299l78 248l332 1087h74v-2l-332 -1085h102l332 1087h74v-1634h-72v475h-282l-33 -104h211v-371h-70v299h-414zM-12 371h102l33 104h-103zM219 547h86v274zM375 547h104v876l-104 -338v-538z" />
<glyph unicode="5" horiz-adv-x="794" d="M-31 274v228h72v-221q0 -45 14 -74q12 -35 33 -57q41 -45 109 -70q31 -8 63 -8q39 0 68 10q68 23 106 70q23 29 33 61q12 35 12 70v520q0 39 -12 71q-8 29 -29 56q-39 51 -94 71q-27 12 -57 17q-8 2 -25 2q-20 0 -45 -6v-111q25 10 43 10h4q55 0 90 -47q20 -27 21 -63 v-520l-4 -31q-4 -6 -7.5 -13.5t-7.5 -13.5q-16 -23 -45 -37q-25 -12 -51 -12q-37 0 -70 23q-31 25 -38 51q-6 18 -6.5 37.5t-0.5 25.5v189h72v-226q0 -14 14 -22q12 -6 29 -6q18 0 27 6q16 10 16 22v533q-2 16 -14.5 25.5t-26.5 9.5q-16 0 -27.5 -11.5t-9.5 -27.5h-80v180 q-37 -27 -55 -55q-41 -59 -41 -125h-80l2 561q0 66 33 125q33 61 94 100q66 41 142 43h309v-69h-305q-41 0 -81 -18.5t-69 -51.5q-51 -59 -53 -131v-383q33 41 55.5 64.5t48.5 35.5v279q0 6 5 22q10 35 32 52q31 25 68 26h299v-71h-297q-16 0 -25 -9q-10 -10 -10 -22v-254 q29 4 43 4h4q27 0 55 -6q53 -10 109 -47q119 -115 121 -244v-547q-2 -32 -10 -59q-18 -68 -70 -119q-47 -47 -109 -68q-55 -18 -104 -18q-76 0 -152 45q-57 37 -92 90q-39 61 -43 139z" />
<glyph unicode="6" horiz-adv-x="800" d="M-25 289v1073q4 53 25 102q27 61 80 105q53 45 123 59q41 8 63 8q31 0 72 -10q55 -14 102 -49q43 -35 76 -84q16 -31 27.5 -73t11.5 -83v-151h-70v151q0 86 -49 148q-41 47 -94 65q-35 14 -76 15q-27 0 -53 -6q-70 -16 -115 -70q-49 -57 -53 -131v-453q37 43 107 76v373 q0 45 35.5 75.5t80.5 30.5q10 0 27 -4q37 -10 59.5 -37.5t24.5 -68.5v-164h-70v166q0 18 -14 26q-10 10 -27 11h-4q-33 0 -43 -33v-355q25 4 41 5l33 -2q72 -10 131 -48q55 -37 90 -96q37 -66 39 -131v-461q-6 -66 -33 -112q-25 -53 -71 -90q-45 -37 -101 -54 q-43 -12 -88 -12q-27 0 -41 2q-76 12 -127 53q-51 37 -86 97q-37 63 -33 137zM45 272q0 -6 2 -20t6 -25q18 -66 70 -104q59 -53 143 -53q43 0 80 14q53 20 92 70q18 23 31 49q16 45 16 69v441q0 27 -6 53q-6 33 -20 53q-31 59 -94 92q-45 23 -99 23q-29 0 -45 -4v-111 q20 10 41 10q14 0 21 -2q31 -6 53 -22q29 -20 39 -55q4 -18 4 -38v-26v-407q-4 -23 -10 -39q-14 -31 -42 -47.5t-63 -16.5q-23 0 -35 4q-31 10 -52 35t-25 55v631q-48 -18 -77.5 -71.5t-29.5 -110.5v-447zM221 281q2 -17 15.5 -26t27.5 -9h4q12 0 23.5 8t15.5 20l2 7v442 q-2 16 -15 26.5t-30 8.5q-16 0 -29.5 -11.5t-13.5 -27.5v-438z" />
<glyph unicode="7" horiz-adv-x="694" d="M-72 0l297 1391h-297v69h314l22 107h-336v69h604l-16 -69l-22 -107l-17 -69l-297 -1391h-74l300 1391h-109l-297 -1391h-72zM313 1460h109l22 107h-108z" />
<glyph unicode="8" horiz-adv-x="765" d="M-35 281v366q0 86 53 162q-49 49 -53 158v385q0 31 10 75q20 72 68 117q39 45 107 74q66 25 137 18q74 -10 129 -47q53 -39 88 -92q41 -66 41 -139v-387q0 -88 -51 -162l10 -16q41 -68 41 -142v-364q0 -31 -10 -76q-18 -63 -66 -117q-47 -51 -109 -74q-66 -25 -137 -18 q-70 8 -127 47q-55 37 -90 92q-18 31 -29 66q-8 25 -12 74zM35 289q6 -43 15 -74t32 -59q43 -53 104 -74q37 -10 68 -10q39 0 72 12q66 23 106 76q43 55 43 127v356q0 34 -8 57q-4 18 -10 29q-2 14 -13 27q-29 45 -65 67q-31 23 -68 31q-18 6 -37 6q-6 2 -18 2 q-41 0 -73.5 26.5t-41.5 67.5v396q0 43 31 73q37 37 84 37q27 0 45 -10q33 -16 49 -41q12 -20 15 -31q4 -12 4 -32v-377q0 -33 -17 -56q57 -23 92 -53q31 55 31 109v379q0 74 -45 133q-43 53 -106 73q-37 10 -68 11q-37 0 -72 -13q-61 -18 -104 -73q-45 -57 -45 -129v-377 q0 -45 20.5 -91t57.5 -75q16 -14 41 -27q49 -27 108 -26q51 0 88 -49q18 -25 19 -64v-356q0 -43 -33 -76t-80 -33q-16 0 -25 2q-33 6 -61.5 36t-28.5 75v356q0 27 17 55q-49 18 -90 54q-33 -51 -33 -109v-358zM211 283q4 -16 17.5 -25.5t27.5 -9.5q16 0 29.5 11t13.5 28v362 q0 21 -27 33q-6 4 -18 4q-16 0 -28.5 -11t-14.5 -28v-364zM211 967l4 -13q18 -29 51 -20q33 12 33 37v383q0 2 -4 14q-4 10 -15.5 17.5t-23.5 7.5q-16 0 -30.5 -12.5t-14.5 -28.5v-385z" />
<glyph unicode="9" horiz-adv-x="790" d="M-39 281v184h70v-182q0 -55 26 -103q37 -63 99 -90q47 -20 96 -20q31 0 47 4q68 14 117 69q47 53 53 127v514q-45 -51 -104 -77v-431q0 -43 -36 -72.5t-81 -29.5q-41 0 -74 29.5t-39 72.5v189h72v-189q4 -14 16.5 -23t28.5 -7q16 0 28.5 10t12.5 27v405q-20 -4 -37 -4 q-94 0 -166 47q-53 39 -88 92q-41 66 -41 142v385q0 45 10 75q18 66 66 117q39 45 106 74q68 25 138 18q74 -10 129 -47q51 -31 88 -92q41 -59 43 -139v-1061q-1 -112 -64 -186q-31 -41 -102 -82q-70 -33 -146 -27q-70 2 -133 43q-57 37 -94 94q-41 66 -41 144zM31 973 q0 -57 28 -111q33 -57 95 -86q49 -23 92 -22q23 0 47 6v108q-25 -10 -43 -10t-45 10q-31 12 -50.5 41t-19.5 64v377q0 37 25.5 67.5t62.5 38.5q20 4 27 4q20 0 45 -10q31 -12 50.5 -41t19.5 -63v-560q30 17 55 50q49 59 49 133v379q0 74 -45 133q-43 53 -105 73 q-37 10 -67 11q-37 0 -72 -13q-63 -18 -106 -73q-43 -57 -43 -129v-377zM207 967q0 -14 12 -25.5t29 -11.5q18 0 31.5 10t13.5 29v383q0 16 -14.5 27.5t-30.5 9.5q-16 0 -28.5 -11.5t-12.5 -27.5v-383z" />
<glyph unicode=":" horiz-adv-x="493" d="M-10 0v246h69v-246h-69zM-10 549v246h69v-246h-69zM166 0v246h70v-246h-70zM166 549v246h70v-246h-70z" />
<glyph unicode=";" horiz-adv-x="497" d="M-14 0v246h69v-246h-69zM-14 549v246h69v-246h-69zM162 -154v400h69v-459zM162 549v246h69v-246h-69z" />
<glyph unicode="?" horiz-adv-x="743" d="M0 1122v240q0 37 12 74q18 57 45 86q57 80 156 104q31 10 76 10q57 0 112 -22q92 -41 142 -125q35 -59 37 -131v-166l-170 -592v-231h-70v241l168 592v164q0 47 -27 88q-39 68 -106 94q-41 18 -84 19q-33 0 -60 -8q-70 -18 -118 -80q-41 -49 -43 -119v-238h-70zM164 0v70 h246v-70h-246zM164 174v72h246v-72h-246zM164 369v268l170 592v119q0 24 -27 38q-12 4 -18 5q-18 0 -30.5 -13.5t-12.5 -34.5v-221h-72v234q0 33 23 59q25 31 63 43q20 4 29 4q20 0 45 -10q33 -14 55 -49q14 -25 14 -55v-131l-170 -590v-258h-69z" />
<glyph unicode="A" horiz-adv-x="1046" d="M0 0v1251q0 92 42 173t114.5 135.5t162.5 70.5q31 6 64 6q102 0 190.5 -51t141.5 -139t53 -195v-1251h-74v1251q0 84 -42 156t-113.5 114t-155.5 42t-154.5 -42t-112.5 -114t-42 -156v-589l110 -64v653q0 80 59.5 140.5t139.5 60.5q82 0 141.5 -60.5t59.5 -140.5v-755 q-23 14 -162 94l-164 92v-127l164 -92q139 -80 162 -94v-369h-74v326l-252 145v-471h-74v512l-110 63v-575h-74zM258 768l252 -143v626q0 53 -37 90t-90 37q-51 0 -88 -36.5t-37 -90.5v-483z" />
<glyph unicode="B" horiz-adv-x="1101" d="M-16 401v1119q55 55 134 83.5t167 28.5q84 0 161.5 -24.5t139.5 -73.5q84 -66 130 -163t46 -206q0 -111 -45 -202l8 -9q84 -84 121 -182q43 -100 43 -211q0 -104 -38 -203.5t-110 -177.5q-78 -86 -186.5 -133t-226.5 -47q-86 0 -166 25v192q-117 55 -178 184zM55 418 q37 -76 107 -119v1126q61 31 129 31q78 0 146.5 -38t107.5 -105q39 -66 39 -144q0 -74 -36 -141t-99 -108q119 -39 189.5 -140.5t70.5 -222.5q0 -51 -17 -111q-39 -121 -140 -194.5t-226 -73.5q-45 0 -93 12v-110q41 -8 93 -8q96 0 188 37.5t160 105.5q69 70 105 160t36 186 q0 94 -35 182t-100 156q-25 27 -55 47q63 96 63 217q0 84 -31.5 160t-91.5 133q-53 53 -123.5 80t-148.5 27q-135 0 -238 -78v-1067zM233 266q45 -14 97 -14q80 0 149.5 39t114.5 108q45 78 45 162q0 59 -22.5 114.5t-65.5 98.5q-41 45 -98.5 68.5t-120.5 23.5 q-55 0 -99 -14v-586zM233 954q27 -8 60 -8q88 0 153.5 63.5t65.5 151.5q0 92 -65.5 158.5t-155.5 66.5q-33 0 -58 -8v-424z" />
<glyph unicode="C" horiz-adv-x="833" d="M-72 819q0 145 42 283.5t128 253.5q90 125 221 200q143 78 292 78h7v-73h-14q-131 0 -248 -70q-113 -66 -198 -178q-78 -106 -117 -233.5t-39 -260.5t39 -260t117 -233q94 -121 198 -179q119 -71 258 -71h4v-74q-152 0 -299 80q-135 78 -221 199q-86 119 -128 256 t-42 282zM113 819q0 117 33.5 226.5t99.5 201.5q70 94 164 148q92 55 194 55h14v-74q-96 0 -172 -45q-82 -49 -141 -127t-89 -178t-30 -207q0 -106 30 -206.5t89 -178.5t141 -127q84 -47 172 -47v-74q-109 0 -208 58q-94 53 -164 147q-66 92 -99.5 201.5t-33.5 226.5z" />
<glyph unicode="D" horiz-adv-x="911" d="M0 154v1482q86 0 184 -28q190 -57 336 -248q82 -113 126 -268.5t44 -305.5q0 -143 -43 -281t-127 -257q-119 -154 -262 -219q-41 -18 -74 -29v199q-82 -43 -184 -45zM74 238q53 8 110 45v1126q8 -4 36 -19.5t38 -25.5q68 -53 113 -115q66 -88 100.5 -214t34.5 -249 q0 -119 -34 -227t-101 -201q-45 -61 -113 -114v-131q23 0 95.5 67.5t107.5 112.5q78 106 116.5 233t38.5 260q0 139 -39.5 281.5t-115.5 247.5q-113 154 -277 215q-45 18 -110 29v-1321zM258 340q20 16 53 61q59 78 90 178.5t31 206.5q0 111 -31.5 226.5t-89.5 193.5 q-33 45 -53 62v-928z" />
<glyph unicode="E" horiz-adv-x="915" d="M0 0v1636h641v-71h-569v-625h108v516h461v-74h-387v-442h387v-72h-569v-614h108v506h461v-72h-387v-434h387v-74h-387v-108h387v-72h-641zM72 72h108v108h-108v-108z" />
<glyph unicode="F" horiz-adv-x="870" d="M0 0v1636h647v-73h-391v-107h391v-76h-391v-442h391v-72h-573v-866h-74zM74 938h110v442h-110v-442zM74 1456h110v107h-110v-107zM184 0v758h463v-74h-391v-684h-72z" />
<glyph unicode="G" horiz-adv-x="976" d="M-82 811q0 221 88 406q78 172 234 290q76 59 172 92q92 33 196 33v-73q-82 0 -172 -29q-88 -35 -153 -82q-137 -106 -211 -264q-82 -180 -82 -373q0 -145 49 -281q63 -174 176 -286q117 -117 264 -154v115q-92 29 -186 117q-100 102 -150 245q-41 123 -41 248 q0 174 70 322q63 137 178 223q55 41 123 64.5t135 23.5v-74q-115 0 -215 -74q-96 -78 -153 -194q-63 -129 -64 -289q0 -121 37 -227q51 -135 131 -215q61 -61 135 -90v405h74v-424q6 -2 61 -6q14 -2 50 -2v432h73v-690h-135q-68 0 -123 14q-88 23 -164 62q-86 49 -153 117 q-131 131 -193 313q-51 147 -51 305zM553 76l61 -2h50v110q-19 2 -50 2q-53 0 -61 2v-112z" />
<glyph unicode="H" d="M0 0v1634h74v-940h110v940h74v-940h221v940h74v-940h111v940h73v-1634h-73v621h-590v-111h479v-510h-74v436h-221v-436h-74v436h-110v-436h-74z" />
<glyph unicode="I" horiz-adv-x="825" d="M-31 0v74h189v110h-189v74h189v1120h-189v74h361v111h-361v73h619v-73h-189v-111h189v-74h-189v-1120h189v-74h-361v-110h361v-74h-619zM227 258h103v1120h-103v-1120z" />
<glyph unicode="J" horiz-adv-x="991" d="M-59 375v315h73v-311q0 -78 45 -150.5t113 -109.5q72 -45 166 -45q96 0 178 53q143 102 143 305v1204h74v-1204q-4 -125 -45 -217t-133 -149q-100 -66 -221 -66q-111 0 -199 55t-141 140.5t-53 179.5zM125 385v305h74v-301q0 -35 18.5 -65.5t48.5 -47.5q35 -20 72 -20 q43 0 76 25q61 43 61 114v1241h74v-1241q-2 -113 -94 -176q-51 -37 -117 -37q-59 0 -109 31q-47 29 -75.5 75t-28.5 97z" />
<glyph unicode="K" horiz-adv-x="927" d="M0 0v1636h74v-579l463 -1057h-82l-195 446v-446h-76v616l-110 254v-870h-74zM184 1081v555h76v-286l125 286h82l-207 -469v-71l43 -103l287 643h82l-328 -735l395 -901h-80z" />
<glyph unicode="L" horiz-adv-x="897" d="M0 0v1634h70v-1384h110v1384h70v-1384h465v-70h-465v-110h465v-70h-715zM70 70h110v110h-110v-110z" />
<glyph unicode="M" d="M0 0v1407l367 -715l370 727v-1419h-73v1122l-105 -211v-911h-78v776l-114 -233l-117 221v-764h-70v901l-110 209v-1110h-70zM0 1636h76l291 -561l284 561h78l-362 -714z" />
<glyph unicode="N" d="M0 0v1636h78l420 -774v230l-297 544h82l215 -395v395h73v-1636h-73v711l-240 444v-1155h-74v1292l-110 203v-1495h-74zM682 0v1636h74v-1636h-74z" />
<glyph unicode="O" horiz-adv-x="1011" d="M0 365v897q0 78 31.5 150.5t89.5 123.5q94 98 246 98q72 0 138 -23.5t113 -74.5q58 -51 89.5 -124t31.5 -150v-897q0 -78 -31.5 -151t-89.5 -124q-49 -43 -114.5 -66.5t-136.5 -23.5q-143 0 -246 90q-57 51 -89 124t-32 151zM68 365q0 -63 25.5 -122t72.5 -100 q77 -73 198 -73h3q131 0 206 73q47 41 73 99.5t26 122.5v897q0 63 -25.5 121.5t-73.5 99.5q-39 37 -93 59.5t-113 22.5q-113 0 -201 -82q-47 -41 -72.5 -99.5t-25.5 -121.5v-897zM170 365v897q0 84 63 143q55 47 134 47q82 0 131 -47q71 -57 71 -143v-897q0 -86 -71 -144 q-49 -47 -131 -47q-78 0 -134 47q-63 59 -63 144zM238 365q0 -55 41 -91q32 -30 85 -30h3q53 0 86 30q41 35 41 91v897q0 55 -41 90q-32 30 -83 30h-3q-55 0 -88 -30q-41 -35 -41 -90v-897z" />
<glyph unicode="P" horiz-adv-x="944" d="M0 0v1636q92 0 164 -10t143 -39q121 -53 217 -145q94 -94 144 -217q51 -121 51 -256q0 -139 -51 -256q-49 -123 -144 -217q-96 -96 -217 -146l-49 -18v-332h-74v502q-55 -14 -110 -19v-483h-74zM74 557q51 2 110 23v854q25 -6 74 -27q84 -41 135 -96q68 -68 106 -157 q36 -85 36 -175v-10v-10q0 -91 -36 -177q-38 -90 -106 -157q-61 -61 -135 -95v-120q106 31 213 137q86 86 129 192q45 105 45 230q0 123 -45 227q-45 109 -129 193q-121 121 -287 159q-68 14 -110 15v-1006zM258 612q41 25 82 66q59 55 90 132t31 159t-31 158.5t-90 132.5 q-43 43 -82 63v-711z" />
<glyph unicode="Q" d="M0 375v889q0 76 31.5 149.5t91.5 128.5q47 47 111.5 70.5t134.5 23.5q94 0 178 -43t133 -123q61 -92 63 -215v-890q0 -70 -28 -140l114 -225h-75l-510 981v-221l227 -455l168 -305h-76l-20 39q-18 -6 -34.5 -12.5t-35.5 -12.5q-49 -14 -106 -14q-31 0 -48 2 q-78 10 -145 51q-66 39 -111 107q-33 45 -45 94t-18 121zM70 375q0 -102 51 -176q35 -53 90 -87t117 -40q12 -2 39 -2q43 0 86 12q18 2 47 18l-49 95q-41 -23 -86 -23q-100 0 -158 84q-20 33 -31 76q0 2 -1 10t-1 33v370l-104 205v-575zM70 1098l104 -203v371q0 80 64 143 q57 47 133 47q49 0 93 -21.5t73 -62.5t32 -117v-747l101 -195q4 33 4 52v890v25q0 25 -4 35q-12 59 -47 117q-43 66 -110 100.5t-142 34.5q-115 0 -201 -80q-90 -76 -100 -223v-166zM244 356q0 -33 20 -59q35 -47 86 -53q6 -2 17 -2q25 0 53 14l-176 354v-254zM244 1130 l243 -475v611q0 34 -20 67q-16 25 -43 38t-57 13q-43 0 -82 -28q-41 -35 -41 -92v-134z" />
<glyph unicode="R" horiz-adv-x="948" d="M0 0v1419l322 -762q51 49 79 97l-372 882h25q111 0 204 -32q152 -49 266.5 -165t163.5 -268q31 -98 31 -202q0 -115 -38 -224.5t-112 -199.5l230 -545h-80l-236 559q11 12 25 27.5t29 36.5q108 155 108 341q0 130 -49 242q-63 137 -184 232.5t-269 115.5l54 -124 q150 -49 245 -175.5t95 -285.5q0 -137 -77 -259t-202 -180v-120q63 20 137 73l203 -483h-80l-158 375q-63 -31 -102 -43v-332h-74v793l-110 262v-1055h-74zM258 1282l184 -438q19 62 19 123q0 82 -31 157.5t-88 132.5q-43 43 -84 64v-39z" />
<glyph unicode="S" horiz-adv-x="991" d="M-102 231l55 48q61 -72 143 -123q92 -57 183 -72q37 -6 73 -6q68 0 127 20q104 35 168 113q68 80 84 184q6 37 6 80q0 72 -18 121q-29 88 -115 166q-57 49 -151 106q-10 6 -76 45l-78 43l-39 23q-47 27 -88 68q-55 57 -63 127q-4 25 -5 38q0 49 25 99q33 70 96 102 q66 37 140 37t143.5 -40t101.5 -101l-61 -39q-33 49 -82 77.5t-102 28.5q-57 0 -103 -26q-47 -29 -67 -72q-16 -37 -17 -70l2 -22q8 -45 45 -88q12 -14 30.5 -26.5t45.5 -27.5l35 -22q39 -25 88 -51q45 -25 68 -39q92 -53 161 -117q49 -45 78 -84q39 -59 57 -110 q23 -66 23 -144q0 -35 -8 -92q-16 -127 -98 -221q-84 -94 -203 -135q-80 -27 -152 -27q-27 0 -84 8q-117 23 -209 82q-92 61 -159 139zM-80 1212q0 98 43 181q57 117 168 180q53 31 115 47q68 14 119 14q123 0 231 -65q35 -18 94 -70q55 -53 76 -90l-61 -41q-9 14 -17 23.5 t-14 17.5l-35 37q-43 39 -80 59q-90 55 -194 56q-51 0 -101 -13q-43 -10 -96 -39q-92 -53 -139 -149q-35 -74 -35 -152q0 -135 96 -235q41 -43 76 -66q57 -37 127 -73q20 -12 46 -26.5t56 -33.5q86 -51 142.5 -102t76.5 -113q12 -39 13 -84q0 -41 -4 -61q-12 -74 -60 -131 q-47 -55 -119 -80q-45 -14 -96 -15q-84 0 -164 44t-147 120l55 49q123 -139 264 -139q98 0 150 68q33 39 43 96q4 18 4 51q0 35 -8 60q-14 43 -64 88q-51 47 -123 86l-86 49q-86 47 -140 82t-97 82q-88 90 -109 221q-6 35 -6 67z" />
<glyph unicode="T" horiz-adv-x="925" d="M-90 1382v70h455v109h-455v75h811v-75h-279v-109h279v-70h-279v-1382h-77v1382h-105v-1382h-76v1382h-274z" />
<glyph unicode="U" d="M0 360v1276h70v-1276q0 -106 75 -194q41 -47 98.5 -71.5t121.5 -24.5q63 0 120.5 24.5t98.5 71.5q68 78 78 194v1276h69v-1276q0 -63 -24.5 -127.5t-71.5 -113.5q-49 -55 -122 -87t-148 -32q-76 0 -149 31.5t-122 87.5q-51 57 -76 129q-16 51 -18 112zM174 362v1274h70 v-1271q0 -41 30 -82q33 -39 91 -39q57 0 90 39q14 14 20 31.5t12 50.5v1271h70v-1274q0 -70 -51 -126q-27 -29 -63.5 -45.5t-77.5 -16.5q-82 0 -142 62q-45 48 -49 126z" />
<glyph unicode="V" horiz-adv-x="1030" d="M-96 1636h69l316 -1562l14 -74h-72zM86 1636h72l219 -1101l217 1101h78l-258 -1284l57 -278l307 1562h78l-330 -1636h-116l-33 168l-35 184z" />
<glyph unicode="W" horiz-adv-x="958" d="M0 0v1636h70v-1509l104 205l180 350l115 -225v223l-115 225l-180 -350v1081h70v-796l110 274l115 -287v809h70v-1317l104 -202v1519h70v-1636h-86l-88 172l-70 135l-115 228l-110 -216l-70 -137l-94 -182h-80z" />
<glyph unicode="X" horiz-adv-x="815" d="M-106 0l239 817l-10 35l-229 782h73l201 -690l41 152l14 51l-147 487h84l98 -360l47 164l53 196h74q-10 -31 -47 -159q-45 -168 -90 -328l55 -203l25 96q25 80 83 273.5t95 320.5h72l-183 -618l-57 -199l240 -817h-80l-195 690l-55 -203l117 -415l18 -72h-72 q-4 12 -7 25.5t-7 25.5l-86 309l-98 -360h-86l149 487l35 127l55 203l-22 82l-33 109l-53 -191l-37 -127l-203 -690h-71z" />
<glyph unicode="Y" horiz-adv-x="811" d="M-102 1636h71l29 -100l172 -592l55 205l-147 487h84l14 -53l86 -307l90 330l8 30h74q-12 -33 -137 -487l55 -205q154 524 180 621q10 33 23 71h72q-7 -25 -13 -43q-41 -133 -231 -792v-801h-70v825l-51 183l-53 -183v-825h-70v801l-4 16l-205 701z" />
<glyph unicode="Z" horiz-adv-x="923" d="M-78 0l490 1378h-490v74h514l39 113h-553v69h658l-70 -182h197l-426 -1196h464v-82h-563l426 1204h-123l-465 -1308h725v-70h-823z" />
<glyph unicode="`" horiz-adv-x="518" d="M-2 1628v10h100l158 -170v-4h-86z" />
<glyph unicode="a" horiz-adv-x="1046" d="M0 0v1251q0 92 42 173t114.5 135.5t162.5 70.5q31 6 64 6q102 0 190.5 -51t141.5 -139t53 -195v-1251h-74v1251q0 84 -42 156t-113.5 114t-155.5 42t-154.5 -42t-112.5 -114t-42 -156v-589l110 -64v653q0 80 59.5 140.5t139.5 60.5q82 0 141.5 -60.5t59.5 -140.5v-755 q-23 14 -162 94l-164 92v-127l164 -92q139 -80 162 -94v-369h-74v326l-252 145v-471h-74v512l-110 63v-575h-74zM258 768l252 -143v626q0 53 -37 90t-90 37q-51 0 -88 -36.5t-37 -90.5v-483z" />
<glyph unicode="b" horiz-adv-x="1101" d="M-16 401v1119q55 55 134 83.5t167 28.5q84 0 161.5 -24.5t139.5 -73.5q84 -66 130 -163t46 -206q0 -111 -45 -202l8 -9q84 -84 121 -182q43 -100 43 -211q0 -104 -38 -203.5t-110 -177.5q-78 -86 -186.5 -133t-226.5 -47q-86 0 -166 25v192q-117 55 -178 184zM55 418 q37 -76 107 -119v1126q61 31 129 31q78 0 146.5 -38t107.5 -105q39 -66 39 -144q0 -74 -36 -141t-99 -108q119 -39 189.5 -140.5t70.5 -222.5q0 -51 -17 -111q-39 -121 -140 -194.5t-226 -73.5q-45 0 -93 12v-110q41 -8 93 -8q96 0 188 37.5t160 105.5q69 70 105 160t36 186 q0 94 -35 182t-100 156q-25 27 -55 47q63 96 63 217q0 84 -31.5 160t-91.5 133q-53 53 -123.5 80t-148.5 27q-135 0 -238 -78v-1067zM233 266q45 -14 97 -14q80 0 149.5 39t114.5 108q45 78 45 162q0 59 -22.5 114.5t-65.5 98.5q-41 45 -98.5 68.5t-120.5 23.5 q-55 0 -99 -14v-586zM233 954q27 -8 60 -8q88 0 153.5 63.5t65.5 151.5q0 92 -65.5 158.5t-155.5 66.5q-33 0 -58 -8v-424z" />
<glyph unicode="c" horiz-adv-x="833" d="M-72 819q0 145 42 283.5t128 253.5q90 125 221 200q143 78 292 78h7v-73h-14q-131 0 -248 -70q-113 -66 -198 -178q-78 -106 -117 -233.5t-39 -260.5t39 -260t117 -233q94 -121 198 -179q119 -71 258 -71h4v-74q-152 0 -299 80q-135 78 -221 199q-86 119 -128 256 t-42 282zM113 819q0 117 33.5 226.5t99.5 201.5q70 94 164 148q92 55 194 55h14v-74q-96 0 -172 -45q-82 -49 -141 -127t-89 -178t-30 -207q0 -106 30 -206.5t89 -178.5t141 -127q84 -47 172 -47v-74q-109 0 -208 58q-94 53 -164 147q-66 92 -99.5 201.5t-33.5 226.5z" />
<glyph unicode="d" horiz-adv-x="911" d="M0 154v1482q86 0 184 -28q190 -57 336 -248q82 -113 126 -268.5t44 -305.5q0 -143 -43 -281t-127 -257q-119 -154 -262 -219q-41 -18 -74 -29v199q-82 -43 -184 -45zM74 238q53 8 110 45v1126q8 -4 36 -19.5t38 -25.5q68 -53 113 -115q66 -88 100.5 -214t34.5 -249 q0 -119 -34 -227t-101 -201q-45 -61 -113 -114v-131q23 0 95.5 67.5t107.5 112.5q78 106 116.5 233t38.5 260q0 139 -39.5 281.5t-115.5 247.5q-113 154 -277 215q-45 18 -110 29v-1321zM258 340q20 16 53 61q59 78 90 178.5t31 206.5q0 111 -31.5 226.5t-89.5 193.5 q-33 45 -53 62v-928z" />
<glyph unicode="e" horiz-adv-x="915" d="M0 0v1636h641v-71h-569v-625h108v516h461v-74h-387v-442h387v-72h-569v-614h108v506h461v-72h-387v-434h387v-74h-387v-108h387v-72h-641zM72 72h108v108h-108v-108z" />
<glyph unicode="f" horiz-adv-x="870" d="M0 0v1636h647v-73h-391v-107h391v-76h-391v-442h391v-72h-573v-866h-74zM74 938h110v442h-110v-442zM74 1456h110v107h-110v-107zM184 0v758h463v-74h-391v-684h-72z" />
<glyph unicode="g" horiz-adv-x="976" d="M-82 811q0 221 88 406q78 172 234 290q76 59 172 92q92 33 196 33v-73q-82 0 -172 -29q-88 -35 -153 -82q-137 -106 -211 -264q-82 -180 -82 -373q0 -145 49 -281q63 -174 176 -286q117 -117 264 -154v115q-92 29 -186 117q-100 102 -150 245q-41 123 -41 248 q0 174 70 322q63 137 178 223q55 41 123 64.5t135 23.5v-74q-115 0 -215 -74q-96 -78 -153 -194q-63 -129 -64 -289q0 -121 37 -227q51 -135 131 -215q61 -61 135 -90v405h74v-424q6 -2 61 -6q14 -2 50 -2v432h73v-690h-135q-68 0 -123 14q-88 23 -164 62q-86 49 -153 117 q-131 131 -193 313q-51 147 -51 305zM553 76l61 -2h50v110q-19 2 -50 2q-53 0 -61 2v-112z" />
<glyph unicode="h" d="M0 0v1634h74v-940h110v940h74v-940h221v940h74v-940h111v940h73v-1634h-73v621h-590v-111h479v-510h-74v436h-221v-436h-74v436h-110v-436h-74z" />
<glyph unicode="i" horiz-adv-x="825" d="M-31 0v74h189v110h-189v74h189v1120h-189v74h361v111h-361v73h619v-73h-189v-111h189v-74h-189v-1120h189v-74h-361v-110h361v-74h-619zM227 258h103v1120h-103v-1120z" />
<glyph unicode="j" horiz-adv-x="991" d="M-59 375v315h73v-311q0 -78 45 -150.5t113 -109.5q72 -45 166 -45q96 0 178 53q143 102 143 305v1204h74v-1204q-4 -125 -45 -217t-133 -149q-100 -66 -221 -66q-111 0 -199 55t-141 140.5t-53 179.5zM125 385v305h74v-301q0 -35 18.5 -65.5t48.5 -47.5q35 -20 72 -20 q43 0 76 25q61 43 61 114v1241h74v-1241q-2 -113 -94 -176q-51 -37 -117 -37q-59 0 -109 31q-47 29 -75.5 75t-28.5 97z" />
<glyph unicode="k" horiz-adv-x="927" d="M0 0v1636h74v-579l463 -1057h-82l-195 446v-446h-76v616l-110 254v-870h-74zM184 1081v555h76v-286l125 286h82l-207 -469v-71l43 -103l287 643h82l-328 -735l395 -901h-80z" />
<glyph unicode="l" horiz-adv-x="897" d="M0 0v1634h70v-1384h110v1384h70v-1384h465v-70h-465v-110h465v-70h-715zM70 70h110v110h-110v-110z" />
<glyph unicode="m" d="M0 0v1407l367 -715l370 727v-1419h-73v1122l-105 -211v-911h-78v776l-114 -233l-117 221v-764h-70v901l-110 209v-1110h-70zM0 1636h76l291 -561l284 561h78l-362 -714z" />
<glyph unicode="n" d="M0 0v1636h78l420 -774v230l-297 544h82l215 -395v395h73v-1636h-73v711l-240 444v-1155h-74v1292l-110 203v-1495h-74zM682 0v1636h74v-1636h-74z" />
<glyph unicode="o" horiz-adv-x="1011" d="M0 365v897q0 78 31.5 150.5t89.5 123.5q94 98 246 98q72 0 138 -23.5t113 -74.5q58 -51 89.5 -124t31.5 -150v-897q0 -78 -31.5 -151t-89.5 -124q-49 -43 -114.5 -66.5t-136.5 -23.5q-143 0 -246 90q-57 51 -89 124t-32 151zM68 365q0 -63 25.5 -122t72.5 -100 q77 -73 198 -73h3q131 0 206 73q47 41 73 99.5t26 122.5v897q0 63 -25.5 121.5t-73.5 99.5q-39 37 -93 59.5t-113 22.5q-113 0 -201 -82q-47 -41 -72.5 -99.5t-25.5 -121.5v-897zM170 365v897q0 84 63 143q55 47 134 47q82 0 131 -47q71 -57 71 -143v-897q0 -86 -71 -144 q-49 -47 -131 -47q-78 0 -134 47q-63 59 -63 144zM238 365q0 -55 41 -91q32 -30 85 -30h3q53 0 86 30q41 35 41 91v897q0 55 -41 90q-32 30 -83 30h-3q-55 0 -88 -30q-41 -35 -41 -90v-897z" />
<glyph unicode="p" horiz-adv-x="944" d="M0 0v1636q92 0 164 -10t143 -39q121 -53 217 -145q94 -94 144 -217q51 -121 51 -256q0 -139 -51 -256q-49 -123 -144 -217q-96 -96 -217 -146l-49 -18v-332h-74v502q-55 -14 -110 -19v-483h-74zM74 557q51 2 110 23v854q25 -6 74 -27q84 -41 135 -96q68 -68 106 -157 q36 -85 36 -175v-10v-10q0 -91 -36 -177q-38 -90 -106 -157q-61 -61 -135 -95v-120q106 31 213 137q86 86 129 192q45 105 45 230q0 123 -45 227q-45 109 -129 193q-121 121 -287 159q-68 14 -110 15v-1006zM258 612q41 25 82 66q59 55 90 132t31 159t-31 158.5t-90 132.5 q-43 43 -82 63v-711z" />
<glyph unicode="q" d="M0 375v889q0 76 31.5 149.5t91.5 128.5q47 47 111.5 70.5t134.5 23.5q94 0 178 -43t133 -123q61 -92 63 -215v-890q0 -70 -28 -140l114 -225h-75l-510 981v-221l227 -455l168 -305h-76l-20 39q-18 -6 -34.5 -12.5t-35.5 -12.5q-49 -14 -106 -14q-31 0 -48 2 q-78 10 -145 51q-66 39 -111 107q-33 45 -45 94t-18 121zM70 375q0 -102 51 -176q35 -53 90 -87t117 -40q12 -2 39 -2q43 0 86 12q18 2 47 18l-49 95q-41 -23 -86 -23q-100 0 -158 84q-20 33 -31 76q0 2 -1 10t-1 33v370l-104 205v-575zM70 1098l104 -203v371q0 80 64 143 q57 47 133 47q49 0 93 -21.5t73 -62.5t32 -117v-747l101 -195q4 33 4 52v890v25q0 25 -4 35q-12 59 -47 117q-43 66 -110 100.5t-142 34.5q-115 0 -201 -80q-90 -76 -100 -223v-166zM244 356q0 -33 20 -59q35 -47 86 -53q6 -2 17 -2q25 0 53 14l-176 354v-254zM244 1130 l243 -475v611q0 34 -20 67q-16 25 -43 38t-57 13q-43 0 -82 -28q-41 -35 -41 -92v-134z" />
<glyph unicode="r" horiz-adv-x="948" d="M0 0v1419l322 -762q51 49 79 97l-372 882h25q111 0 204 -32q152 -49 266.5 -165t163.5 -268q31 -98 31 -202q0 -115 -38 -224.5t-112 -199.5l230 -545h-80l-236 559q11 12 25 27.5t29 36.5q108 155 108 341q0 130 -49 242q-63 137 -184 232.5t-269 115.5l54 -124 q150 -49 245 -175.5t95 -285.5q0 -137 -77 -259t-202 -180v-120q63 20 137 73l203 -483h-80l-158 375q-63 -31 -102 -43v-332h-74v793l-110 262v-1055h-74zM258 1282l184 -438q19 62 19 123q0 82 -31 157.5t-88 132.5q-43 43 -84 64v-39z" />
<glyph unicode="s" horiz-adv-x="991" d="M-102 231l55 48q61 -72 143 -123q92 -57 183 -72q37 -6 73 -6q68 0 127 20q104 35 168 113q68 80 84 184q6 37 6 80q0 72 -18 121q-29 88 -115 166q-57 49 -151 106q-10 6 -76 45l-78 43l-39 23q-47 27 -88 68q-55 57 -63 127q-4 25 -5 38q0 49 25 99q33 70 96 102 q66 37 140 37t143.5 -40t101.5 -101l-61 -39q-33 49 -82 77.5t-102 28.5q-57 0 -103 -26q-47 -29 -67 -72q-16 -37 -17 -70l2 -22q8 -45 45 -88q12 -14 30.5 -26.5t45.5 -27.5l35 -22q39 -25 88 -51q45 -25 68 -39q92 -53 161 -117q49 -45 78 -84q39 -59 57 -110 q23 -66 23 -144q0 -35 -8 -92q-16 -127 -98 -221q-84 -94 -203 -135q-80 -27 -152 -27q-27 0 -84 8q-117 23 -209 82q-92 61 -159 139zM-80 1212q0 98 43 181q57 117 168 180q53 31 115 47q68 14 119 14q123 0 231 -65q35 -18 94 -70q55 -53 76 -90l-61 -41q-9 14 -17 23.5 t-14 17.5l-35 37q-43 39 -80 59q-90 55 -194 56q-51 0 -101 -13q-43 -10 -96 -39q-92 -53 -139 -149q-35 -74 -35 -152q0 -135 96 -235q41 -43 76 -66q57 -37 127 -73q20 -12 46 -26.5t56 -33.5q86 -51 142.5 -102t76.5 -113q12 -39 13 -84q0 -41 -4 -61q-12 -74 -60 -131 q-47 -55 -119 -80q-45 -14 -96 -15q-84 0 -164 44t-147 120l55 49q123 -139 264 -139q98 0 150 68q33 39 43 96q4 18 4 51q0 35 -8 60q-14 43 -64 88q-51 47 -123 86l-86 49q-86 47 -140 82t-97 82q-88 90 -109 221q-6 35 -6 67z" />
<glyph unicode="t" horiz-adv-x="925" d="M-90 1382v70h455v109h-455v75h811v-75h-279v-109h279v-70h-279v-1382h-77v1382h-105v-1382h-76v1382h-274z" />
<glyph unicode="u" d="M0 360v1276h70v-1276q0 -106 75 -194q41 -47 98.5 -71.5t121.5 -24.5q63 0 120.5 24.5t98.5 71.5q68 78 78 194v1276h69v-1276q0 -63 -24.5 -127.5t-71.5 -113.5q-49 -55 -122 -87t-148 -32q-76 0 -149 31.5t-122 87.5q-51 57 -76 129q-16 51 -18 112zM174 362v1274h70 v-1271q0 -41 30 -82q33 -39 91 -39q57 0 90 39q14 14 20 31.5t12 50.5v1271h70v-1274q0 -70 -51 -126q-27 -29 -63.5 -45.5t-77.5 -16.5q-82 0 -142 62q-45 48 -49 126z" />
<glyph unicode="v" horiz-adv-x="1030" d="M-96 1636h69l316 -1562l14 -74h-72zM86 1636h72l219 -1101l217 1101h78l-258 -1284l57 -278l307 1562h78l-330 -1636h-116l-33 168l-35 184z" />
<glyph unicode="w" horiz-adv-x="958" d="M0 0v1636h70v-1509l104 205l180 350l115 -225v223l-115 225l-180 -350v1081h70v-796l110 274l115 -287v809h70v-1317l104 -202v1519h70v-1636h-86l-88 172l-70 135l-115 228l-110 -216l-70 -137l-94 -182h-80z" />
<glyph unicode="x" horiz-adv-x="815" d="M-106 0l239 817l-10 35l-229 782h73l201 -690l41 152l14 51l-147 487h84l98 -360l47 164l53 196h74q-10 -31 -47 -159q-45 -168 -90 -328l55 -203l25 96q25 80 83 273.5t95 320.5h72l-183 -618l-57 -199l240 -817h-80l-195 690l-55 -203l117 -415l18 -72h-72 q-4 12 -7 25.5t-7 25.5l-86 309l-98 -360h-86l149 487l35 127l55 203l-22 82l-33 109l-53 -191l-37 -127l-203 -690h-71z" />
<glyph unicode="y" horiz-adv-x="811" d="M-102 1636h71l29 -100l172 -592l55 205l-147 487h84l14 -53l86 -307l90 330l8 30h74q-12 -33 -137 -487l55 -205q154 524 180 621q10 33 23 71h72q-7 -25 -13 -43q-41 -133 -231 -792v-801h-70v825l-51 183l-53 -183v-825h-70v801l-4 16l-205 701z" />
<glyph unicode="z" horiz-adv-x="923" d="M-78 0l490 1378h-490v74h514l39 113h-553v69h658l-70 -182h197l-426 -1196h464v-82h-563l25 82l401 1122h-123l-403 -1122l-62 -186h725v-70h-823z" />
<glyph unicode="&#xa8;" horiz-adv-x="782" d="M16 1569q0 27 17.5 44t44.5 17q24 0 42.5 -17.5t18.5 -43.5q0 -27 -18.5 -44.5t-42.5 -17.5q-27 0 -44.5 17.5t-17.5 44.5zM356 1569q0 27 18.5 44t43.5 17q26 0 44.5 -17.5t18.5 -43.5q0 -27 -18.5 -44.5t-44.5 -17.5q-25 0 -43.5 17.5t-18.5 44.5z" />
<glyph unicode="&#xab;" horiz-adv-x="854" d="M0 776l461 461l51 -51l-410 -410l402 -403l-49 -49zM283 764l315 315l51 -51l-264 -264l256 -258l-49 -49z" />
<glyph unicode="&#xad;" horiz-adv-x="501" d="M-70 649v68h367v-68h-367z" />
<glyph unicode="&#xaf;" horiz-adv-x="544" d="M-39 1581v64h367v-64h-367z" />
<glyph unicode="&#xb4;" horiz-adv-x="442" d="M-4 1460v4l158 170h100v-10l-172 -164h-86z" />
<glyph unicode="&#xb8;" horiz-adv-x="458" d="M-4 -403q76 -8 116 27.5t40 90.5q0 45 -28 82t-75 45l55 189h66l-49 -152q43 -24 67.5 -69.5t24.5 -94.5q0 -78 -56.5 -133t-160.5 -51v66z" />
<glyph unicode="&#xbb;" horiz-adv-x="854" d="M0 532l264 265l-256 258l49 49l310 -307l-316 -316zM137 375l410 409l-402 404l50 49l454 -453l-461 -460z" />
<glyph unicode="&#xbf;" horiz-adv-x="698" d="M-74 -178l170 592v231h70v-242l-168 -591v-164q0 -47 27 -88q39 -68 106 -95q41 -18 84 -18q33 0 59 8q70 18 119 80q41 49 43 119v237h70v-239q0 -37 -12 -74q-18 -57 -45 -86q-57 -80 -156 -104q-31 -10 -76 -11q-57 0 -113 23q-92 41 -141 125q-35 59 -37 131v166z M96 768v72h246v-72h-246zM96 944v70h246v-70h-246zM102 -203l170 590v258h70v-268l-170 -592v-119q0 -25 27 -39q12 -4 18 -4q18 0 30.5 13.5t12.5 33.5v221h72v-233q0 -33 -23 -59q-25 -31 -63 -43q-16 -4 -27 -5q-20 0 -47 11q-33 14 -55 49q-14 25 -15 55v131z" />
<glyph unicode="&#xc0;" horiz-adv-x="1046" d="M0 0h74v575l110 -63v-512h74v471l252 -145v-326h74v369q-23 14 -162 94l-164 92v127l164 -92q139 -80 162 -94v755q0 80 -59.5 140.5t-141.5 60.5q-80 0 -139.5 -60.5t-59.5 -140.5v-653l-110 64v589q0 84 42 156t112.5 114t154.5 42t155.5 -42t113.5 -114t42 -156v-1251 h74v1251q0 106 -53 194.5t-141.5 139.5t-190.5 51q-33 0 -64 -6q-90 -16 -162.5 -70.5t-114.5 -135.5t-42 -173v-1251zM199 1894v11h100l158 -170v-4h-86zM258 768v483q0 54 37 90.5t88 36.5q53 0 90 -36.5t37 -90.5v-626z" />
<glyph unicode="&#xc1;" horiz-adv-x="1046" d="M0 0v1251q0 92 42 173t114.5 135.5t162.5 70.5q31 6 64 6q102 0 190.5 -51t141.5 -139t53 -195v-1251h-74v1251q0 84 -42 156t-113.5 114t-155.5 42t-154.5 -42t-112.5 -114t-42 -156v-589l110 -64v653q0 80 59.5 140.5t139.5 60.5q82 0 141.5 -60.5t59.5 -140.5v-755 q-23 14 -162 94l-164 92v-127l164 -92q139 -80 162 -94v-369h-74v326l-252 145v-471h-74v512l-110 63v-575h-74zM258 768l252 -143v626q0 53 -37 90t-90 37q-51 0 -88 -36.5t-37 -90.5v-483zM309 1720v4l158 170h100v-10l-172 -164h-86z" />
<glyph unicode="&#xc2;" horiz-adv-x="1046" d="M0 0v1251q0 92 42 173t114.5 135.5t162.5 70.5q31 6 64 6q102 0 190.5 -51t141.5 -139t53 -195v-1251h-74v1251q0 84 -42 156t-113.5 114t-155.5 42t-154.5 -42t-112.5 -114t-42 -156v-589l110 -64v653q0 80 59.5 140.5t139.5 60.5q82 0 141.5 -60.5t59.5 -140.5v-755 q-23 14 -162 94l-164 92v-127l164 -92q139 -80 162 -94v-369h-74v326l-252 145v-471h-74v512l-110 63v-575h-74zM127 1702v10l211 189h82l225 -199h-102l-162 143l-162 -143h-92zM258 768l252 -143v626q0 53 -37 90t-90 37q-51 0 -88 -36.5t-37 -90.5v-483z" />
<glyph unicode="&#xc3;" horiz-adv-x="1046" d="M0 0h74v575l110 -63v-512h74v471l252 -145v-326h74v369q-23 14 -162 94l-164 92v127l164 -92q139 -80 162 -94v755q0 80 -59.5 140.5t-141.5 60.5q-80 0 -139.5 -60.5t-59.5 -140.5v-653l-110 64v589q0 84 42 156t112.5 114t154.5 42t155.5 -42t113.5 -114t42 -156v-1251 h74v1251q0 106 -53 194.5t-141.5 139.5t-190.5 51q-33 0 -64 -6q-90 -16 -162.5 -70.5t-114.5 -135.5t-42 -173v-1251zM150 1829l53 33q31 -72 92 -72q37 0 86 33q55 39 115 39q96 0 147 -101l-51 -30q-35 66 -96 65q-43 0 -86 -31q-57 -37 -113 -36q-98 0 -147 100z M258 768v483q0 54 37 90.5t88 36.5q53 0 90 -36.5t37 -90.5v-626z" />
<glyph unicode="&#xc4;" horiz-adv-x="1046" d="M0 0h74v575l110 -63v-512h74v471l252 -145v-326h74v369q-23 14 -162 94l-164 92v127l164 -92q139 -80 162 -94v755q0 80 -59.5 140.5t-141.5 60.5q-80 0 -139.5 -60.5t-59.5 -140.5v-653l-110 64v589q0 84 42 156t112.5 114t154.5 42t155.5 -42t113.5 -114t42 -156v-1251 h74v1251q0 106 -53 194.5t-141.5 139.5t-190.5 51q-33 0 -64 -6q-90 -16 -162.5 -70.5t-114.5 -135.5t-42 -173v-1251zM150 1788q0 27 17 44t44 17q25 0 43 -17t18 -44t-18 -44.5t-43 -17.5q-27 0 -44 17.5t-17 44.5zM258 768v483q0 54 37 90.5t88 36.5q53 0 90 -36.5 t37 -90.5v-626zM489 1788q0 27 18.5 44t43.5 17q27 0 45 -17t18 -44t-18 -44.5t-45 -17.5q-25 0 -43.5 17.5t-18.5 44.5z" />
<glyph unicode="&#xc5;" horiz-adv-x="1046" d="M0 0v1251q0 102 52 190.5t141 141.5q35 20 75 33q-51 47 -51 125t49 121t117 43q66 0 115 -43t49 -121t-51 -123q74 -23 133 -74q63 -51 101 -129t38 -164v-1251h-74v1251q0 82 -43 155t-114.5 118t-153.5 45t-153.5 -45t-113.5 -118t-42 -155v-589l110 -64v653 q0 80 59.5 140.5t139.5 60.5q82 0 141.5 -60.5t59.5 -140.5v-755q-23 14 -162 94l-164 92v-127l164 -92q139 -80 162 -94v-369h-74v326l-252 145v-471h-74v512l-110 63v-575h-74zM258 768l252 -143v626q0 53 -37 90t-90 37q-51 0 -88 -36.5t-37 -90.5v-483zM276 1741 q0 -49 32 -77t75 -28q41 0 72.5 28t31.5 77t-30.5 75.5t-73.5 26.5t-75 -26.5t-32 -75.5z" />
<glyph unicode="&#xc6;" horiz-adv-x="1277" d="M-39 0v1253q0 104 52.5 192.5t140.5 140.5t192 52h686v-69h-495v-629h110v518h385v-72h-313v-446h313v-70h-495v-796h110v688h385v-72h-313v-434h313v-76h-313v-106h313v-74h-565v485l-160 -102q-31 -20 -53.5 -34.5t-34.5 -22.5v-326h-74v371q45 25 185 112q8 6 137 86 v127q-41 -25 -81 -49t-71 -43q-135 -86 -170 -104v753q0 90 58.5 144.5t148.5 54.5h115v115h-121q-82 0 -153.5 -43t-114.5 -115t-43 -156v-1253h-74zM219 629l248 153v598h-117q-57 0 -94 -33.5t-37 -93.5v-624z" />
<glyph unicode="&#xc7;" horiz-adv-x="833" d="M-72 819q0 145 42 283.5t128 253.5q90 125 221 200q147 80 299 78v-73q-139 4 -262 -70q-113 -66 -198 -178q-78 -106 -117 -233.5t-39 -260.5t39 -260t117 -233q94 -121 198 -179q121 -72 262 -71v-74q-49 0 -110 10l-31 -98q43 -25 67.5 -70t24.5 -94q0 -78 -56 -133 t-161 -51v65q76 -8 116 28t40 91q0 45 -27.5 82t-74.5 45l43 150q-68 23 -130 55q-135 78 -221 199q-86 119 -128 256t-42 282zM113 819q0 117 33.5 226.5t99.5 201.5q70 94 164 148q98 59 208 55v-74q-96 0 -172 -45q-82 -49 -141 -127t-89 -178t-30 -207q0 -106 30 -206.5 t89 -178.5t141 -127q84 -47 172 -47v-74q-109 0 -208 58q-94 53 -164 147q-66 92 -99.5 201.5t-33.5 226.5z" />
<glyph unicode="&#xc8;" horiz-adv-x="915" d="M0 0h641v72h-387v108h387v74h-387v434h387v72h-461v-506h-108v614h569v72h-387v442h387v74h-461v-516h-108v625h569v71h-641v-1636zM72 72v108h108v-108h-108zM139 1892v11h101l157 -170v-4h-86z" />
<glyph unicode="&#xc9;" horiz-adv-x="915" d="M0 0v1636h641v-71h-569v-625h108v516h461v-74h-387v-442h387v-72h-569v-614h108v506h461v-72h-387v-434h387v-74h-387v-108h387v-72h-641zM72 72h108v108h-108v-108zM270 1729v4l158 170h100v-11l-172 -163h-86z" />
<glyph unicode="&#xca;" horiz-adv-x="915" d="M0 0v1636h641v-71h-569v-625h108v516h461v-74h-387v-442h387v-72h-569v-614h108v506h461v-72h-387v-434h387v-74h-387v-108h387v-72h-641zM63 1720v11l211 188h82l226 -199h-103l-162 144l-161 -144h-93zM72 72h108v108h-108v-108z" />
<glyph unicode="&#xcb;" horiz-adv-x="915" d="M0 0h641v72h-387v108h387v74h-387v434h387v72h-461v-506h-108v614h569v72h-387v442h387v74h-461v-516h-108v625h569v71h-641v-1636zM72 72v108h108v-108h-108zM92 1790q0 27 17.5 44t44.5 17q24 0 42.5 -17t18.5 -44t-18.5 -44t-42.5 -17q-27 0 -44.5 17t-17.5 44z M432 1790q0 27 18.5 44t43.5 17q26 0 44.5 -17t18.5 -44t-18.5 -44t-44.5 -17q-25 0 -43.5 17t-18.5 44z" />
<glyph unicode="&#xcc;" horiz-adv-x="825" d="M-31 0h619v74h-361v110h361v74h-189v1120h189v74h-189v111h189v73h-619v-73h361v-111h-361v-74h189v-1120h-189v-74h189v-110h-189v-74zM94 1892v11h101l157 -170v-4h-86zM227 258v1120h103v-1120h-103z" />
<glyph unicode="&#xcd;" horiz-adv-x="825" d="M-31 0v74h189v110h-189v74h189v1120h-189v74h361v111h-361v73h619v-73h-189v-111h189v-74h-189v-1120h189v-74h-361v-110h361v-74h-619zM186 1729v4l158 170h100v-11l-172 -163h-86zM227 258h103v1120h-103v-1120z" />
<glyph unicode="&#xce;" horiz-adv-x="825" d="M-31 0v74h189v110h-189v74h189v1120h-189v74h361v111h-361v73h619v-73h-189v-111h189v-74h-189v-1120h189v-74h-361v-110h361v-74h-619zM20 1739v10l211 188h82l226 -198h-103l-162 143l-161 -143h-93zM227 258h103v1120h-103v-1120z" />
<glyph unicode="&#xcf;" horiz-adv-x="825" d="M-31 0h619v74h-361v110h361v74h-189v1120h189v74h-189v111h189v73h-619v-73h361v-111h-361v-74h189v-1120h-189v-74h189v-110h-189v-74zM51 1812q0 27 17.5 44.5t44.5 17.5q24 0 42.5 -17.5t18.5 -44.5t-18.5 -44t-42.5 -17q-27 0 -44.5 17.5t-17.5 43.5zM227 258v1120 h103v-1120h-103zM391 1812q0 27 18.5 44.5t43.5 17.5q26 0 44.5 -17.5t18.5 -44.5t-18.5 -44t-44.5 -17q-25 0 -43.5 17.5t-18.5 43.5z" />
<glyph unicode="&#xd0;" horiz-adv-x="911" d="M-92 748v57h92v831q86 0 184 -28q190 -57 336 -248q82 -113 126 -268.5t44 -305.5q0 -143 -43 -281t-127 -257q-119 -154 -262 -219q-41 -18 -74 -29v199q-82 -43 -184 -45v594h-92zM74 238q53 8 110 45v465h-110v-510zM74 805h110v604q8 -4 36 -19.5t38 -25.5 q68 -53 113 -115q66 -88 100.5 -214t34.5 -249q0 -119 -34 -227t-101 -201q-45 -61 -113 -114v-131q23 0 95.5 67.5t107.5 112.5q78 106 116.5 233t38.5 260q0 139 -39.5 281.5t-115.5 247.5q-113 154 -277 215q-45 18 -110 29v-754zM258 340q20 16 53 61q59 78 90 178.5 t31 206.5q0 111 -31.5 226.5t-89.5 193.5q-33 45 -53 62v-463h100v-57h-100v-408z" />
<glyph unicode="&#xd1;" d="M0 0h74v1495l110 -203v-1292h74v1155l240 -444v-711h73v1636h-73v-395l-215 395h-82l297 -544v-230l-420 774h-78v-1636zM123 1862l53 32q31 -71 92 -71q37 0 86 32q55 39 115 39q96 0 147 -100l-51 -31q-35 66 -96 66q-43 0 -86 -31q-57 -37 -113 -37q-98 0 -147 101z M682 0h74v1636h-74v-1636z" />
<glyph unicode="&#xd2;" horiz-adv-x="1011" d="M0 365q0 -78 31.5 -151t89.5 -124q102 -90 246 -90q72 0 137 23.5t114 66.5q57 51 89 124t32 151v897q0 78 -31.5 150.5t-89.5 123.5q-47 51 -113.5 74.5t-137.5 23.5q-152 0 -246 -98q-57 -51 -89 -124t-32 -150v-897zM68 365v897q0 63 25.5 121.5t72.5 99.5 q88 82 201 82q59 0 113.5 -22.5t92.5 -59.5q47 -41 73 -99.5t26 -121.5v-897q0 -64 -25.5 -122.5t-73.5 -99.5q-76 -74 -206 -73q-123 0 -201 73q-47 41 -72.5 99.5t-25.5 122.5zM170 365q0 -84 63 -144q55 -47 134 -47q82 0 131 47q72 57 71 144v897q0 86 -71 143 q-49 47 -131 47q-78 0 -134 -47q-63 -59 -63 -143v-897zM178 1878v10h101l157 -170v-4h-86zM238 365v897q0 55 41 90q33 31 88 30q53 0 86 -30q41 -35 41 -90v-897q0 -56 -41 -91q-33 -31 -86 -30q-55 0 -88 30q-41 35 -41 91z" />
<glyph unicode="&#xd3;" horiz-adv-x="1011" d="M0 365v897q0 78 31.5 150.5t89.5 123.5q94 98 246 98q72 0 138 -23.5t113 -74.5q58 -51 89.5 -124t31.5 -150v-897q0 -78 -31.5 -151t-89.5 -124q-49 -43 -114.5 -66.5t-136.5 -23.5q-143 0 -246 90q-57 51 -89 124t-32 151zM68 365q0 -63 25.5 -122t72.5 -100 q78 -74 201 -73q131 0 206 73q47 41 73 99.5t26 122.5v897q0 63 -25.5 121.5t-73.5 99.5q-39 37 -93 59.5t-113 22.5q-113 0 -201 -82q-47 -41 -72.5 -99.5t-25.5 -121.5v-897zM170 365v897q0 84 63 143q55 47 134 47q82 0 131 -47q71 -57 71 -143v-897q0 -86 -71 -144 q-49 -47 -131 -47q-78 0 -134 47q-63 59 -63 144zM238 365q0 -55 41 -91q33 -31 88 -30q53 0 86 30q41 35 41 91v897q0 55 -41 90q-33 31 -86 30q-55 0 -88 -30q-41 -35 -41 -90v-897zM274 1712v4l158 170h100v-10l-172 -164h-86z" />
<glyph unicode="&#xd4;" horiz-adv-x="1011" d="M0 365v897q0 78 31.5 150.5t89.5 123.5q94 98 246 98q72 0 138 -23.5t113 -74.5q58 -51 89.5 -124t31.5 -150v-897q0 -78 -31.5 -151t-89.5 -124q-49 -43 -114.5 -66.5t-136.5 -23.5q-143 0 -246 90q-57 51 -89 124t-32 151zM68 365q0 -63 25.5 -122t72.5 -100 q78 -74 201 -73q131 0 206 73q47 41 73 99.5t26 122.5v897q0 63 -25.5 121.5t-73.5 99.5q-39 37 -93 59.5t-113 22.5q-113 0 -201 -82q-47 -41 -72.5 -99.5t-25.5 -121.5v-897zM109 1688v10l210 188h82l226 -198h-103l-162 143l-161 -143h-92zM170 365v897q0 84 63 143 q55 47 134 47q82 0 131 -47q71 -57 71 -143v-897q0 -86 -71 -144q-49 -47 -131 -47q-78 0 -134 47q-63 59 -63 144zM238 365q0 -55 41 -91q33 -31 88 -30q53 0 86 30q41 35 41 91v897q0 55 -41 90q-33 31 -86 30q-55 0 -88 -30q-41 -35 -41 -90v-897z" />
<glyph unicode="&#xd5;" horiz-adv-x="1011" d="M0 365q0 -78 31.5 -151t89.5 -124q102 -90 246 -90q72 0 137 23.5t114 66.5q57 51 89 124t32 151v897q0 78 -31.5 150.5t-89.5 123.5q-47 51 -113.5 74.5t-137.5 23.5q-152 0 -246 -98q-57 -51 -89 -124t-32 -150v-897zM68 365v897q0 63 25.5 121.5t72.5 99.5 q88 82 201 82q59 0 113.5 -22.5t92.5 -59.5q47 -41 73 -99.5t26 -121.5v-897q0 -64 -25.5 -122.5t-73.5 -99.5q-76 -74 -206 -73q-123 0 -201 73q-47 41 -72.5 99.5t-25.5 122.5zM123 1831l53 33q31 -72 92 -72q37 0 86 33q55 39 115 39q96 0 147 -101l-51 -30 q-35 66 -96 65q-43 0 -86 -31q-57 -37 -113 -36q-98 0 -147 100zM170 365q0 -84 63 -144q55 -47 134 -47q82 0 131 47q72 57 71 144v897q0 86 -71 143q-49 47 -131 47q-78 0 -134 -47q-63 -59 -63 -143v-897zM238 365v897q0 55 41 90q33 31 88 30q53 0 86 -30q41 -35 41 -90 v-897q0 -56 -41 -91q-33 -31 -86 -30q-55 0 -88 30q-41 35 -41 91z" />
<glyph unicode="&#xd6;" horiz-adv-x="1011" d="M0 365q0 -78 31.5 -151t89.5 -124q102 -90 246 -90q72 0 137 23.5t114 66.5q57 51 89 124t32 151v897q0 78 -31.5 150.5t-89.5 123.5q-47 51 -113.5 74.5t-137.5 23.5q-152 0 -246 -98q-57 -51 -89 -124t-32 -150v-897zM68 365v897q0 63 25.5 121.5t72.5 99.5 q88 82 201 82q59 0 113.5 -22.5t92.5 -59.5q47 -41 73 -99.5t26 -121.5v-897q0 -64 -25.5 -122.5t-73.5 -99.5q-76 -74 -206 -73q-123 0 -201 73q-47 41 -72.5 99.5t-25.5 122.5zM139 1769q0 27 17.5 44.5t44.5 17.5q24 0 42.5 -17.5t18.5 -44.5t-18.5 -44t-42.5 -17 q-27 0 -44.5 17.5t-17.5 43.5zM170 365q0 -84 63 -144q55 -47 134 -47q82 0 131 47q72 57 71 144v897q0 86 -71 143q-49 47 -131 47q-78 0 -134 -47q-63 -59 -63 -143v-897zM238 365v897q0 55 41 90q33 31 88 30q53 0 86 -30q41 -35 41 -90v-897q0 -56 -41 -91 q-33 -31 -86 -30q-55 0 -88 30q-41 35 -41 91zM479 1769q0 27 18.5 44.5t43.5 17.5q26 0 44.5 -17.5t18.5 -44.5t-18.5 -44t-44.5 -17q-25 0 -43.5 17.5t-18.5 43.5z" />
<glyph unicode="&#xd8;" horiz-adv-x="1011" d="M0 365v897q0 78 31.5 150.5t89.5 123.5q94 98 246 98q61 0 133 -22q37 -10 71 -37l39 133h66l-51 -178q55 -53 82 -119q33 -68 32 -149v-897q0 -78 -31.5 -151t-89.5 -124q-49 -43 -114.5 -66.5t-136.5 -23.5q-70 0 -131 20q-16 6 -50 23l-32 -113h-64l43 148l-12 12 q-57 51 -89 124t-32 151zM68 365q0 -63 24 -123q20 -49 62 -90l36 124q-2 2 -2 5.5t-2 5.5q-16 39 -16 78v897q0 84 63 143q55 47 134 47q82 0 131 -47q72 -57 71 -143v-897q0 -86 -71 -144q-49 -47 -131 -47q-35 0 -72 10q-29 8 -59 33l-31 -106q70 -41 162 -41 q131 0 206 73q47 41 73 99.5t26 122.5v897q0 63 -25.5 121.5t-73.5 99.5q-39 37 -93 59.5t-113 22.5q-113 0 -201 -82q-47 -41 -72.5 -99.5t-25.5 -121.5v-897zM238 434l251 860q-8 33 -36 58q-33 30 -86 30q-55 0 -88 -30q-41 -35 -41 -90v-828zM258 295q8 -12 21 -21 q33 -30 88 -30q53 0 86 30q41 35 41 91v733z" />
<glyph unicode="&#xd9;" d="M0 360q2 -61 18 -112q25 -72 76 -129q49 -55 122 -87t149 -32t148.5 31.5t121.5 87.5q47 49 71.5 113.5t24.5 127.5v1276h-69v-1276q-10 -117 -78 -194q-41 -47 -98.5 -71.5t-120.5 -24.5t-121 24.5t-99 71.5q-76 88 -75 194v1276h-70v-1276zM174 362q4 -78 49 -126 q60 -62 142 -62q41 0 77.5 16.5t63.5 45.5q51 57 51 126v1274h-70v-1271q-6 -33 -12 -50.5t-20 -31.5q-33 -39 -90 -39t-91 39q-31 41 -30 82v1271h-70v-1274zM186 1911v10h101l157 -170v-4h-86z" />
<glyph unicode="&#xda;" d="M0 360v1276h70v-1276q0 -106 75 -194q41 -47 98.5 -71.5t121.5 -24.5q63 0 120.5 24.5t98.5 71.5q68 78 78 194v1276h69v-1276q0 -63 -24.5 -127.5t-71.5 -113.5q-49 -55 -122 -87t-148 -32q-76 0 -149 31.5t-122 87.5q-51 57 -76 129q-16 51 -18 112zM174 362v1274h70 v-1271q0 -41 30 -82q33 -39 91 -39q57 0 90 39q14 14 20 31.5t12 50.5v1271h70v-1274q0 -70 -51 -126q-27 -29 -63.5 -45.5t-77.5 -16.5q-82 0 -142 62q-45 48 -49 126zM285 1745v4l157 170h101v-10l-172 -164h-86z" />
<glyph unicode="&#xdb;" d="M0 360v1276h70v-1276q0 -106 75 -194q41 -47 98.5 -71.5t121.5 -24.5q63 0 120.5 24.5t98.5 71.5q68 78 78 194v1276h69v-1276q0 -63 -24.5 -127.5t-71.5 -113.5q-49 -55 -122 -87t-148 -32q-76 0 -149 31.5t-122 87.5q-51 57 -76 129q-16 51 -18 112zM111 1733v10 l211 188h81l226 -198h-103l-161 143l-162 -143h-92zM174 362v1274h70v-1271q0 -41 30 -82q33 -39 91 -39q57 0 90 39q14 14 20 31.5t12 50.5v1271h70v-1274q0 -70 -51 -126q-27 -29 -63.5 -45.5t-77.5 -16.5q-82 0 -142 62q-45 48 -49 126z" />
<glyph unicode="&#xdc;" d="M0 360q2 -61 18 -112q25 -72 76 -129q49 -55 122 -87t149 -32t148.5 31.5t121.5 87.5q47 49 71.5 113.5t24.5 127.5v1276h-69v-1276q-10 -117 -78 -194q-41 -47 -98.5 -71.5t-120.5 -24.5t-121 24.5t-99 71.5q-76 88 -75 194v1276h-70v-1276zM143 1808q0 27 17.5 44.5 t44.5 17.5q24 0 42.5 -17.5t18.5 -44.5t-18.5 -44t-42.5 -17q-27 0 -44.5 17.5t-17.5 43.5zM174 362q4 -78 49 -126q60 -62 142 -62q41 0 77.5 16.5t63.5 45.5q51 57 51 126v1274h-70v-1271q-6 -33 -12 -50.5t-20 -31.5q-33 -39 -90 -39t-91 39q-31 41 -30 82v1271h-70 v-1274zM483 1808q0 27 18.5 44.5t43.5 17.5q26 0 44.5 -17.5t18.5 -44.5t-18.5 -44t-44.5 -17q-25 0 -43.5 17.5t-18.5 43.5z" />
<glyph unicode="&#xdd;" horiz-adv-x="811" d="M-102 1636h71l29 -100l172 -592l55 205l-147 487h84l14 -53l86 -307l90 330l8 30h74q-12 -33 -137 -487l55 -205q154 524 180 621q10 33 23 71h72q-7 -25 -13 -43q-41 -133 -231 -792v-801h-70v825l-51 183l-53 -183v-825h-70v801l-4 16l-205 701zM188 1737v4l158 170 h100v-10l-172 -164h-86z" />
<glyph unicode="&#xde;" horiz-adv-x="944" d="M0 0v1634h74v-450q55 -2 110 -19v469h74v-307q203 -39 334 -180q129 -137 129 -348t-129 -350q-129 -140 -334 -179v-270h-74v432q-55 -14 -110 -18v-414h-74zM74 487q51 3 110 23v577q-59 20 -110 23v-623zM258 340q184 35 287.5 158t103.5 301t-103.5 301t-287.5 157 v-120q106 -35 184 -115q82 -80 82 -223t-82 -226q-78 -77 -184 -112v-121zM258 530q98 41 146.5 101.5t48.5 167.5q0 106 -48.5 166.5t-146.5 101.5v-537z" />
<glyph unicode="&#xe0;" horiz-adv-x="1046" d="M0 0h74v575l110 -63v-512h74v471l252 -145v-326h74v369q-23 14 -162 94l-164 92v127l164 -92q139 -80 162 -94v755q0 80 -59.5 140.5t-141.5 60.5q-80 0 -139.5 -60.5t-59.5 -140.5v-653l-110 64v589q0 84 42 156t112.5 114t154.5 42t155.5 -42t113.5 -114t42 -156v-1251 h74v1251q0 106 -53 194.5t-141.5 139.5t-190.5 51q-33 0 -64 -6q-90 -16 -162.5 -70.5t-114.5 -135.5t-42 -173v-1251zM199 1894v11h100l158 -170v-4h-86zM258 768v483q0 54 37 90.5t88 36.5q53 0 90 -36.5t37 -90.5v-626z" />
<glyph unicode="&#xe1;" horiz-adv-x="1046" d="M0 0v1251q0 92 42 173t114.5 135.5t162.5 70.5q31 6 64 6q102 0 190.5 -51t141.5 -139t53 -195v-1251h-74v1251q0 84 -42 156t-113.5 114t-155.5 42t-154.5 -42t-112.5 -114t-42 -156v-589l110 -64v653q0 80 59.5 140.5t139.5 60.5q82 0 141.5 -60.5t59.5 -140.5v-755 q-23 14 -162 94l-164 92v-127l164 -92q139 -80 162 -94v-369h-74v326l-252 145v-471h-74v512l-110 63v-575h-74zM258 768l252 -143v626q0 53 -37 90t-90 37q-51 0 -88 -36.5t-37 -90.5v-483zM309 1720v4l158 170h100v-10l-172 -164h-86z" />
<glyph unicode="&#xe2;" horiz-adv-x="1046" d="M0 0v1251q0 92 42 173t114.5 135.5t162.5 70.5q31 6 64 6q102 0 190.5 -51t141.5 -139t53 -195v-1251h-74v1251q0 84 -42 156t-113.5 114t-155.5 42t-154.5 -42t-112.5 -114t-42 -156v-589l110 -64v653q0 80 59.5 140.5t139.5 60.5q82 0 141.5 -60.5t59.5 -140.5v-755 q-23 14 -162 94l-164 92v-127l164 -92q139 -80 162 -94v-369h-74v326l-252 145v-471h-74v512l-110 63v-575h-74zM127 1702v10l211 189h82l225 -199h-102l-162 143l-162 -143h-92zM258 768l252 -143v626q0 53 -37 90t-90 37q-51 0 -88 -36.5t-37 -90.5v-483z" />
<glyph unicode="&#xe3;" horiz-adv-x="1046" d="M0 0h74v575l110 -63v-512h74v471l252 -145v-326h74v369q-23 14 -162 94l-164 92v127l164 -92q139 -80 162 -94v755q0 80 -59.5 140.5t-141.5 60.5q-80 0 -139.5 -60.5t-59.5 -140.5v-653l-110 64v589q0 84 42 156t112.5 114t154.5 42t155.5 -42t113.5 -114t42 -156v-1251 h74v1251q0 106 -53 194.5t-141.5 139.5t-190.5 51q-33 0 -64 -6q-90 -16 -162.5 -70.5t-114.5 -135.5t-42 -173v-1251zM150 1829l53 33q31 -72 92 -72q37 0 86 33q55 39 115 39q96 0 147 -101l-51 -30q-35 66 -96 65q-43 0 -86 -31q-57 -37 -113 -36q-98 0 -147 100z M258 768v483q0 54 37 90.5t88 36.5q53 0 90 -36.5t37 -90.5v-626z" />
<glyph unicode="&#xe4;" horiz-adv-x="1046" d="M0 0h74v575l110 -63v-512h74v471l252 -145v-326h74v369q-23 14 -162 94l-164 92v127l164 -92q139 -80 162 -94v755q0 80 -59.5 140.5t-141.5 60.5q-80 0 -139.5 -60.5t-59.5 -140.5v-653l-110 64v589q0 84 42 156t112.5 114t154.5 42t155.5 -42t113.5 -114t42 -156v-1251 h74v1251q0 106 -53 194.5t-141.5 139.5t-190.5 51q-33 0 -64 -6q-90 -16 -162.5 -70.5t-114.5 -135.5t-42 -173v-1251zM150 1788q0 27 17 44t44 17q25 0 43 -17t18 -44t-18 -44.5t-43 -17.5q-27 0 -44 17.5t-17 44.5zM258 768v483q0 54 37 90.5t88 36.5q53 0 90 -36.5 t37 -90.5v-626zM489 1788q0 27 18.5 44t43.5 17q27 0 45 -17t18 -44t-18 -44.5t-45 -17.5q-25 0 -43.5 17.5t-18.5 44.5z" />
<glyph unicode="&#xe5;" horiz-adv-x="1046" d="M0 0v1251q0 102 52 190.5t141 141.5q35 20 75 33q-51 47 -51 125t49 121t117 43q66 0 115 -43t49 -121t-51 -123q74 -23 133 -74q63 -51 101 -129t38 -164v-1251h-74v1251q0 82 -43 155t-114.5 118t-153.5 45t-153.5 -45t-113.5 -118t-42 -155v-589l110 -64v653 q0 80 59.5 140.5t139.5 60.5q82 0 141.5 -60.5t59.5 -140.5v-755q-23 14 -162 94l-164 92v-127l164 -92q139 -80 162 -94v-369h-74v326l-252 145v-471h-74v512l-110 63v-575h-74zM258 768l252 -143v626q0 53 -37 90t-90 37q-51 0 -88 -36.5t-37 -90.5v-483zM276 1741 q0 -49 32 -77t75 -28q41 0 72.5 28t31.5 77t-30.5 75.5t-73.5 26.5t-75 -26.5t-32 -75.5z" />
<glyph unicode="&#xe6;" horiz-adv-x="1277" d="M-39 0v1253q0 104 52.5 192.5t140.5 140.5t192 52h686v-69h-495v-629h110v518h385v-72h-313v-446h313v-70h-495v-796h110v688h385v-72h-313v-434h313v-76h-313v-106h313v-74h-565v485l-160 -102q-31 -20 -53.5 -34.5t-34.5 -22.5v-326h-74v371q45 25 185 112q8 6 137 86 v127q-41 -25 -81 -49t-71 -43q-135 -86 -170 -104v753q0 90 58.5 144.5t148.5 54.5h115v115h-121q-82 0 -153.5 -43t-114.5 -115t-43 -156v-1253h-74zM219 629l248 153v598h-117q-57 0 -94 -33.5t-37 -93.5v-624z" />
<glyph unicode="&#xe7;" horiz-adv-x="833" d="M-72 819q0 145 42 283.5t128 253.5q90 125 221 200q147 80 299 78v-73q-139 4 -262 -70q-113 -66 -198 -178q-78 -106 -117 -233.5t-39 -260.5t39 -260t117 -233q94 -121 198 -179q121 -72 262 -71v-74q-49 0 -110 10l-31 -98q43 -25 67.5 -70t24.5 -94q0 -78 -56 -133 t-161 -51v65q76 -8 116 28t40 91q0 45 -27.5 82t-74.5 45l43 150q-68 23 -130 55q-135 78 -221 199q-86 119 -128 256t-42 282zM113 819q0 117 33.5 226.5t99.5 201.5q70 94 164 148q98 59 208 55v-74q-96 0 -172 -45q-82 -49 -141 -127t-89 -178t-30 -207q0 -106 30 -206.5 t89 -178.5t141 -127q84 -47 172 -47v-74q-109 0 -208 58q-94 53 -164 147q-66 92 -99.5 201.5t-33.5 226.5z" />
<glyph unicode="&#xe8;" horiz-adv-x="915" d="M0 0h641v72h-387v108h387v74h-387v434h387v72h-461v-506h-108v614h569v72h-387v442h387v74h-461v-516h-108v625h569v71h-641v-1636zM72 72v108h108v-108h-108zM139 1892v11h101l157 -170v-4h-86z" />
<glyph unicode="&#xe9;" horiz-adv-x="915" d="M0 0v1636h641v-71h-569v-625h108v516h461v-74h-387v-442h387v-72h-569v-614h108v506h461v-72h-387v-434h387v-74h-387v-108h387v-72h-641zM72 72h108v108h-108v-108zM270 1729v4l158 170h100v-11l-172 -163h-86z" />
<glyph unicode="&#xea;" horiz-adv-x="915" d="M0 0v1636h641v-71h-569v-625h108v516h461v-74h-387v-442h387v-72h-569v-614h108v506h461v-72h-387v-434h387v-74h-387v-108h387v-72h-641zM63 1720v11l211 188h82l226 -199h-103l-162 144l-161 -144h-93zM72 72h108v108h-108v-108z" />
<glyph unicode="&#xeb;" horiz-adv-x="915" d="M0 0h641v72h-387v108h387v74h-387v434h387v72h-461v-506h-108v614h569v72h-387v442h387v74h-461v-516h-108v625h569v71h-641v-1636zM72 72v108h108v-108h-108zM92 1790q0 27 17.5 44t44.5 17q24 0 42.5 -17t18.5 -44t-18.5 -44t-42.5 -17q-27 0 -44.5 17t-17.5 44z M432 1790q0 27 18.5 44t43.5 17q26 0 44.5 -17t18.5 -44t-18.5 -44t-44.5 -17q-25 0 -43.5 17t-18.5 44z" />
<glyph unicode="&#xec;" horiz-adv-x="825" d="M-31 0h619v74h-361v110h361v74h-189v1120h189v74h-189v111h189v73h-619v-73h361v-111h-361v-74h189v-1120h-189v-74h189v-110h-189v-74zM94 1892v11h101l157 -170v-4h-86zM227 258v1120h103v-1120h-103z" />
<glyph unicode="&#xed;" horiz-adv-x="825" d="M-31 0v74h189v110h-189v74h189v1120h-189v74h361v111h-361v73h619v-73h-189v-111h189v-74h-189v-1120h189v-74h-361v-110h361v-74h-619zM186 1729v4l158 170h100v-11l-172 -163h-86zM227 258h103v1120h-103v-1120z" />
<glyph unicode="&#xee;" horiz-adv-x="825" d="M-31 0v74h189v110h-189v74h189v1120h-189v74h361v111h-361v73h619v-73h-189v-111h189v-74h-189v-1120h189v-74h-361v-110h361v-74h-619zM20 1739v10l211 188h82l226 -198h-103l-162 143l-161 -143h-93zM227 258h103v1120h-103v-1120z" />
<glyph unicode="&#xef;" horiz-adv-x="825" d="M-31 0h619v74h-361v110h361v74h-189v1120h189v74h-189v111h189v73h-619v-73h361v-111h-361v-74h189v-1120h-189v-74h189v-110h-189v-74zM51 1812q0 27 17.5 44.5t44.5 17.5q24 0 42.5 -17.5t18.5 -44.5t-18.5 -44t-42.5 -17q-27 0 -44.5 17.5t-17.5 43.5zM227 258v1120 h103v-1120h-103zM391 1812q0 27 18.5 44.5t43.5 17.5q26 0 44.5 -17.5t18.5 -44.5t-18.5 -44t-44.5 -17q-25 0 -43.5 17.5t-18.5 43.5z" />
<glyph unicode="&#xf0;" horiz-adv-x="911" d="M-92 748v57h92v831q86 0 184 -28q190 -57 336 -248q82 -113 126 -268.5t44 -305.5q0 -143 -43 -281t-127 -257q-119 -154 -262 -219q-41 -18 -74 -29v199q-82 -43 -184 -45v594h-92zM74 238q53 8 110 45v465h-110v-510zM74 805h110v604q8 -4 36 -19.5t38 -25.5 q68 -53 113 -115q66 -88 100.5 -214t34.5 -249q0 -119 -34 -227t-101 -201q-45 -61 -113 -114v-131q23 0 95.5 67.5t107.5 112.5q78 106 116.5 233t38.5 260q0 139 -39.5 281.5t-115.5 247.5q-113 154 -277 215q-45 18 -110 29v-754zM258 340q20 16 53 61q59 78 90 178.5 t31 206.5q0 111 -31.5 226.5t-89.5 193.5q-33 45 -53 62v-463h100v-57h-100v-408z" />
<glyph unicode="&#xf1;" d="M0 0h74v1495l110 -203v-1292h74v1155l240 -444v-711h73v1636h-73v-395l-215 395h-82l297 -544v-230l-420 774h-78v-1636zM123 1862l53 32q31 -71 92 -71q37 0 86 32q55 39 115 39q96 0 147 -100l-51 -31q-35 66 -96 66q-43 0 -86 -31q-57 -37 -113 -37q-98 0 -147 101z M682 0h74v1636h-74v-1636z" />
<glyph unicode="&#xf2;" horiz-adv-x="1011" d="M0 365q0 -78 31.5 -151t89.5 -124q102 -90 246 -90q72 0 137 23.5t114 66.5q57 51 89 124t32 151v897q0 78 -31.5 150.5t-89.5 123.5q-47 51 -113.5 74.5t-137.5 23.5q-152 0 -246 -98q-57 -51 -89 -124t-32 -150v-897zM68 365v897q0 63 25.5 121.5t72.5 99.5 q88 82 201 82q59 0 113.5 -22.5t92.5 -59.5q47 -41 73 -99.5t26 -121.5v-897q0 -64 -25.5 -122.5t-73.5 -99.5q-76 -74 -206 -73q-123 0 -201 73q-47 41 -72.5 99.5t-25.5 122.5zM170 365q0 -84 63 -144q55 -47 134 -47q82 0 131 47q72 57 71 144v897q0 86 -71 143 q-49 47 -131 47q-78 0 -134 -47q-63 -59 -63 -143v-897zM178 1878v10h101l157 -170v-4h-86zM238 365v897q0 55 41 90q33 31 88 30q53 0 86 -30q41 -35 41 -90v-897q0 -56 -41 -91q-33 -31 -86 -30q-55 0 -88 30q-41 35 -41 91z" />
<glyph unicode="&#xf3;" horiz-adv-x="1011" d="M0 365v897q0 78 31.5 150.5t89.5 123.5q94 98 246 98q72 0 138 -23.5t113 -74.5q58 -51 89.5 -124t31.5 -150v-897q0 -78 -31.5 -151t-89.5 -124q-49 -43 -114.5 -66.5t-136.5 -23.5q-143 0 -246 90q-57 51 -89 124t-32 151zM68 365q0 -63 25.5 -122t72.5 -100 q78 -74 201 -73q131 0 206 73q47 41 73 99.5t26 122.5v897q0 63 -25.5 121.5t-73.5 99.5q-39 37 -93 59.5t-113 22.5q-113 0 -201 -82q-47 -41 -72.5 -99.5t-25.5 -121.5v-897zM170 365v897q0 84 63 143q55 47 134 47q82 0 131 -47q71 -57 71 -143v-897q0 -86 -71 -144 q-49 -47 -131 -47q-78 0 -134 47q-63 59 -63 144zM238 365q0 -55 41 -91q33 -31 88 -30q53 0 86 30q41 35 41 91v897q0 55 -41 90q-33 31 -86 30q-55 0 -88 -30q-41 -35 -41 -90v-897zM274 1712v4l158 170h100v-10l-172 -164h-86z" />
<glyph unicode="&#xf4;" horiz-adv-x="1011" d="M0 365v897q0 78 31.5 150.5t89.5 123.5q94 98 246 98q72 0 138 -23.5t113 -74.5q58 -51 89.5 -124t31.5 -150v-897q0 -78 -31.5 -151t-89.5 -124q-49 -43 -114.5 -66.5t-136.5 -23.5q-143 0 -246 90q-57 51 -89 124t-32 151zM68 365q0 -63 25.5 -122t72.5 -100 q78 -74 201 -73q131 0 206 73q47 41 73 99.5t26 122.5v897q0 63 -25.5 121.5t-73.5 99.5q-39 37 -93 59.5t-113 22.5q-113 0 -201 -82q-47 -41 -72.5 -99.5t-25.5 -121.5v-897zM109 1688v10l210 188h82l226 -198h-103l-162 143l-161 -143h-92zM170 365v897q0 84 63 143 q55 47 134 47q82 0 131 -47q71 -57 71 -143v-897q0 -86 -71 -144q-49 -47 -131 -47q-78 0 -134 47q-63 59 -63 144zM238 365q0 -55 41 -91q33 -31 88 -30q53 0 86 30q41 35 41 91v897q0 55 -41 90q-33 31 -86 30q-55 0 -88 -30q-41 -35 -41 -90v-897z" />
<glyph unicode="&#xf5;" horiz-adv-x="1011" d="M0 365q0 -78 31.5 -151t89.5 -124q102 -90 246 -90q72 0 137 23.5t114 66.5q57 51 89 124t32 151v897q0 78 -31.5 150.5t-89.5 123.5q-47 51 -113.5 74.5t-137.5 23.5q-152 0 -246 -98q-57 -51 -89 -124t-32 -150v-897zM68 365v897q0 63 25.5 121.5t72.5 99.5 q88 82 201 82q59 0 113.5 -22.5t92.5 -59.5q47 -41 73 -99.5t26 -121.5v-897q0 -64 -25.5 -122.5t-73.5 -99.5q-76 -74 -206 -73q-123 0 -201 73q-47 41 -72.5 99.5t-25.5 122.5zM123 1831l53 33q31 -72 92 -72q37 0 86 33q55 39 115 39q96 0 147 -101l-51 -30 q-35 66 -96 65q-43 0 -86 -31q-57 -37 -113 -36q-98 0 -147 100zM170 365q0 -84 63 -144q55 -47 134 -47q82 0 131 47q72 57 71 144v897q0 86 -71 143q-49 47 -131 47q-78 0 -134 -47q-63 -59 -63 -143v-897zM238 365v897q0 55 41 90q33 31 88 30q53 0 86 -30q41 -35 41 -90 v-897q0 -56 -41 -91q-33 -31 -86 -30q-55 0 -88 30q-41 35 -41 91z" />
<glyph unicode="&#xf6;" horiz-adv-x="1011" d="M0 365q0 -78 31.5 -151t89.5 -124q102 -90 246 -90q72 0 137 23.5t114 66.5q57 51 89 124t32 151v897q0 78 -31.5 150.5t-89.5 123.5q-47 51 -113.5 74.5t-137.5 23.5q-152 0 -246 -98q-57 -51 -89 -124t-32 -150v-897zM68 365v897q0 63 25.5 121.5t72.5 99.5 q88 82 201 82q59 0 113.5 -22.5t92.5 -59.5q47 -41 73 -99.5t26 -121.5v-897q0 -64 -25.5 -122.5t-73.5 -99.5q-76 -74 -206 -73q-123 0 -201 73q-47 41 -72.5 99.5t-25.5 122.5zM139 1769q0 27 17.5 44.5t44.5 17.5q24 0 42.5 -17.5t18.5 -44.5t-18.5 -44t-42.5 -17 q-27 0 -44.5 17.5t-17.5 43.5zM170 365q0 -84 63 -144q55 -47 134 -47q82 0 131 47q72 57 71 144v897q0 86 -71 143q-49 47 -131 47q-78 0 -134 -47q-63 -59 -63 -143v-897zM238 365v897q0 55 41 90q33 31 88 30q53 0 86 -30q41 -35 41 -90v-897q0 -56 -41 -91 q-33 -31 -86 -30q-55 0 -88 30q-41 35 -41 91zM479 1769q0 27 18.5 44.5t43.5 17.5q26 0 44.5 -17.5t18.5 -44.5t-18.5 -44t-44.5 -17q-25 0 -43.5 17.5t-18.5 43.5z" />
<glyph unicode="&#xf8;" horiz-adv-x="1011" d="M0 365v897q0 78 31.5 150.5t89.5 123.5q94 98 246 98q61 0 133 -22q37 -10 71 -37l39 133h66l-51 -178q55 -53 82 -119q33 -68 32 -149v-897q0 -78 -31.5 -151t-89.5 -124q-49 -43 -114.5 -66.5t-136.5 -23.5q-70 0 -131 20q-16 6 -50 23l-32 -113h-64l43 148l-12 12 q-57 51 -89 124t-32 151zM68 365q0 -63 24 -123q20 -49 62 -90l36 124q-2 2 -2 5.5t-2 5.5q-16 39 -16 78v897q0 84 63 143q55 47 134 47q82 0 131 -47q72 -57 71 -143v-897q0 -86 -71 -144q-49 -47 -131 -47q-35 0 -72 10q-29 8 -59 33l-31 -106q70 -41 162 -41 q131 0 206 73q47 41 73 99.5t26 122.5v897q0 63 -25.5 121.5t-73.5 99.5q-39 37 -93 59.5t-113 22.5q-113 0 -201 -82q-47 -41 -72.5 -99.5t-25.5 -121.5v-897zM238 434l251 860q-8 33 -36 58q-33 30 -86 30q-55 0 -88 -30q-41 -35 -41 -90v-828zM258 295q8 -12 21 -21 q33 -30 88 -30q53 0 86 30q41 35 41 91v733z" />
<glyph unicode="&#xf9;" d="M0 360q2 -61 18 -112q25 -72 76 -129q49 -55 122 -87t149 -32t148.5 31.5t121.5 87.5q47 49 71.5 113.5t24.5 127.5v1276h-69v-1276q-10 -117 -78 -194q-41 -47 -98.5 -71.5t-120.5 -24.5t-121 24.5t-99 71.5q-76 88 -75 194v1276h-70v-1276zM174 362q4 -78 49 -126 q60 -62 142 -62q41 0 77.5 16.5t63.5 45.5q51 57 51 126v1274h-70v-1271q-6 -33 -12 -50.5t-20 -31.5q-33 -39 -90 -39t-91 39q-31 41 -30 82v1271h-70v-1274zM186 1911v10h101l157 -170v-4h-86z" />
<glyph unicode="&#xfa;" d="M0 360v1276h70v-1276q0 -106 75 -194q41 -47 98.5 -71.5t121.5 -24.5q63 0 120.5 24.5t98.5 71.5q68 78 78 194v1276h69v-1276q0 -63 -24.5 -127.5t-71.5 -113.5q-49 -55 -122 -87t-148 -32q-76 0 -149 31.5t-122 87.5q-51 57 -76 129q-16 51 -18 112zM174 362v1274h70 v-1271q0 -41 30 -82q33 -39 91 -39q57 0 90 39q14 14 20 31.5t12 50.5v1271h70v-1274q0 -70 -51 -126q-27 -29 -63.5 -45.5t-77.5 -16.5q-82 0 -142 62q-45 48 -49 126zM285 1745v4l157 170h101v-10l-172 -164h-86z" />
<glyph unicode="&#xfb;" d="M0 360v1276h70v-1276q0 -106 75 -194q41 -47 98.5 -71.5t121.5 -24.5q63 0 120.5 24.5t98.5 71.5q68 78 78 194v1276h69v-1276q0 -63 -24.5 -127.5t-71.5 -113.5q-49 -55 -122 -87t-148 -32q-76 0 -149 31.5t-122 87.5q-51 57 -76 129q-16 51 -18 112zM111 1733v10 l211 188h81l226 -198h-103l-161 143l-162 -143h-92zM174 362v1274h70v-1271q0 -41 30 -82q33 -39 91 -39q57 0 90 39q14 14 20 31.5t12 50.5v1271h70v-1274q0 -70 -51 -126q-27 -29 -63.5 -45.5t-77.5 -16.5q-82 0 -142 62q-45 48 -49 126z" />
<glyph unicode="&#xfc;" d="M0 360q2 -61 18 -112q25 -72 76 -129q49 -55 122 -87t149 -32t148.5 31.5t121.5 87.5q47 49 71.5 113.5t24.5 127.5v1276h-69v-1276q-10 -117 -78 -194q-41 -47 -98.5 -71.5t-120.5 -24.5t-121 24.5t-99 71.5q-76 88 -75 194v1276h-70v-1276zM143 1808q0 27 17.5 44.5 t44.5 17.5q24 0 42.5 -17.5t18.5 -44.5t-18.5 -44t-42.5 -17q-27 0 -44.5 17.5t-17.5 43.5zM174 362q4 -78 49 -126q60 -62 142 -62q41 0 77.5 16.5t63.5 45.5q51 57 51 126v1274h-70v-1271q-6 -33 -12 -50.5t-20 -31.5q-33 -39 -90 -39t-91 39q-31 41 -30 82v1271h-70 v-1274zM483 1808q0 27 18.5 44.5t43.5 17.5q26 0 44.5 -17.5t18.5 -44.5t-18.5 -44t-44.5 -17q-25 0 -43.5 17.5t-18.5 43.5z" />
<glyph unicode="&#xfd;" horiz-adv-x="811" d="M-102 1636h71l29 -100l172 -592l55 205l-147 487h84l14 -53l86 -307l90 330l8 30h74q-12 -33 -137 -487l55 -205q154 524 180 621q10 33 23 71h72q-7 -25 -13 -43q-41 -133 -231 -792v-801h-70v825l-51 183l-53 -183v-825h-70v801l-4 16l-205 701zM182 1718v4l158 170 h100v-10l-172 -164h-86z" />
<glyph unicode="&#xfe;" horiz-adv-x="944" d="M0 0v1634h74v-450q55 -2 110 -19v469h74v-307q203 -39 334 -180q129 -137 129 -348t-129 -350q-129 -140 -334 -179v-270h-74v432q-55 -14 -110 -18v-414h-74zM74 487q51 3 110 23v577q-59 20 -110 23v-623zM258 340q184 35 287.5 158t103.5 301t-103.5 301t-287.5 157 v-120q106 -35 184 -115q82 -80 82 -223t-82 -226q-78 -77 -184 -112v-121zM258 530q98 41 146.5 101.5t48.5 167.5q0 106 -48.5 166.5t-146.5 101.5v-537z" />
<glyph unicode="&#xff;" horiz-adv-x="811" d="M-102 1636l32 -118l205 -701l4 -16v-801h70v825l53 183l51 -183v-825h70v801q190 659 231 792q6 18 13 43h-72q-13 -38 -23 -71q-27 -96 -180 -621l-55 205q125 455 137 487h-74l-8 -30l-90 -330l-86 307l-14 53h-84l147 -487l-55 -205l-172 592l-29 100h-71zM31 1794 q0 27 17.5 44t43.5 17q25 0 43.5 -17t18.5 -44t-18.5 -44t-43.5 -17q-27 0 -44 17t-17 44zM371 1794q0 27 18.5 44t42.5 17q27 0 45.5 -17t18.5 -44t-18.5 -44t-45.5 -17q-25 0 -43 17t-18 44z" />
<glyph unicode="&#x152;" horiz-adv-x="1243" d="M-35 365v901q0 82 31 149q39 82 90 125q51 51 109 72q57 25 135 24q61 0 119 -28v30h561v-69h-490v-629h109v518h381v-72h-305v-446h305v-70h-490v-796h109v688h381v-72h-305v-434h305v-76h-305v-106h305v-74h-561v31q-55 -31 -123 -31q-53 0 -125 23q-61 20 -115 67 q-55 51 -90 125q-31 68 -31 150zM31 365q0 -66 26 -121q23 -55 72 -101q37 -33 92 -53t111 -20q74 0 117 34v107q-27 -17 -52 -27q-37 -10 -67 -10q-33 0 -74 10q-43 23 -59 39q-37 37 -45 66q-18 45 -19 76v901q0 35 19 75q10 31 45 66q29 23 59 37q31 10 74 10 q74 0 119 -37v125q-2 2 -7 2q-63 25 -112 25q-111 0 -201 -84q-47 -41 -72 -99q-27 -59 -26 -120v-901zM203 365q0 -53 39 -91q10 -10 39 -22q23 -8 49 -8q43 0 69.5 9t49.5 38v1052q-23 21 -56 32t-63 11q-29 0 -49 -10q-27 -8 -39 -20q-39 -37 -39 -90v-901z" />
<glyph unicode="&#x153;" horiz-adv-x="1243" d="M-35 365v901q0 82 31 149q39 82 90 125q51 51 109 72q57 25 135 24q61 0 119 -28v30h561v-69h-490v-629h109v518h381v-72h-305v-446h305v-70h-490v-796h109v688h381v-72h-305v-434h305v-76h-305v-106h305v-74h-561v31q-55 -31 -123 -31q-53 0 -125 23q-61 20 -115 67 q-55 51 -90 125q-31 68 -31 150zM31 365q0 -66 26 -121q23 -55 72 -101q37 -33 92 -53t111 -20q74 0 117 34v107q-27 -17 -52 -27q-37 -10 -67 -10q-33 0 -74 10q-43 23 -59 39q-37 37 -45 66q-18 45 -19 76v901q0 35 19 75q10 31 45 66q29 23 59 37q31 10 74 10 q74 0 119 -37v125q-2 2 -7 2q-63 25 -112 25q-111 0 -201 -84q-47 -41 -72 -99q-27 -59 -26 -120v-901zM203 365q0 -53 39 -91q10 -10 39 -22q23 -8 49 -8q43 0 69.5 9t49.5 38v1052q-23 21 -56 32t-63 11q-29 0 -49 -10q-27 -8 -39 -20q-39 -37 -39 -90v-901z" />
<glyph unicode="&#x178;" horiz-adv-x="811" d="M-102 1636l32 -118l205 -701l4 -16v-801h70v825l53 183l51 -183v-825h70v801q190 659 231 792q6 18 13 43h-72q-13 -38 -23 -71q-27 -96 -180 -621l-55 205q125 455 137 487h-74l-8 -30l-90 -330l-86 307l-14 53h-84l147 -487l-55 -205l-172 592l-29 100h-71zM35 1792 q0 27 17.5 44t43.5 17q25 0 43.5 -17t18.5 -44t-18.5 -44t-43.5 -17q-27 0 -44 17t-17 44zM375 1792q0 27 18.5 44t42.5 17q27 0 45.5 -17t18.5 -44t-18.5 -44t-45.5 -17q-25 0 -43 17t-18 44z" />
<glyph unicode="&#x2c6;" horiz-adv-x="651" d="M-41 1440v10l211 188h82l225 -198h-102l-162 143l-162 -143h-92z" />
<glyph unicode="&#x2dc;" horiz-adv-x="684" d="M-49 1593l53 33q31 -72 92 -72q37 0 86 33q55 39 115 39q96 0 147 -100l-51 -31q-35 66 -96 66q-43 0 -86 -31q-57 -37 -113 -37q-98 0 -147 100z" />
<glyph unicode="&#x2000;" horiz-adv-x="968" />
<glyph unicode="&#x2001;" horiz-adv-x="1937" />
<glyph unicode="&#x2002;" horiz-adv-x="968" />
<glyph unicode="&#x2003;" horiz-adv-x="1937" />
<glyph unicode="&#x2004;" horiz-adv-x="645" />
<glyph unicode="&#x2005;" horiz-adv-x="484" />
<glyph unicode="&#x2006;" horiz-adv-x="322" />
<glyph unicode="&#x2007;" horiz-adv-x="322" />
<glyph unicode="&#x2008;" horiz-adv-x="242" />
<glyph unicode="&#x2009;" horiz-adv-x="387" />
<glyph unicode="&#x200a;" horiz-adv-x="107" />
<glyph unicode="&#x2010;" horiz-adv-x="501" d="M-70 649v68h367v-68h-367z" />
<glyph unicode="&#x2011;" horiz-adv-x="501" d="M-70 649v68h367v-68h-367z" />
<glyph unicode="&#x2012;" horiz-adv-x="501" d="M-70 649v68h367v-68h-367z" />
<glyph unicode="&#x2013;" horiz-adv-x="612" d="M-70 649v68h478v-68h-478z" />
<glyph unicode="&#x2014;" horiz-adv-x="749" d="M-70 649v68h631v-68h-631z" />
<glyph unicode="&#x2018;" horiz-adv-x="268" d="M-39 1223v458l70 -59v-399h-70z" />
<glyph unicode="&#x2019;" horiz-adv-x="280" d="M-39 1247v400h70v-459z" />
<glyph unicode="&#x201c;" horiz-adv-x="450" d="M-39 1223v458l70 -59v-399h-70zM139 1223v458l70 -59v-399h-70z" />
<glyph unicode="&#x201d;" horiz-adv-x="430" d="M-35 1251v400h70v-459zM143 1251v400h70v-459z" />
<glyph unicode="&#x202f;" horiz-adv-x="387" />
<glyph unicode="&#x205f;" horiz-adv-x="484" />
<glyph unicode="&#x20ac;" horiz-adv-x="833" d="M-143 676v67h114q-4 49 -4 76v25h-110v67h114q8 94 37 187q39 139 129 258q90 125 221 200q147 80 299 78v-73q-139 4 -262 -70q-113 -66 -198 -178q-78 -104 -119 -236q-23 -78 -33 -166h111q10 80 28 133q33 104 101 203q70 94 164 148q98 59 208 55v-74 q-96 0 -172 -45q-82 -49 -141 -127q-61 -84 -90 -180q-16 -57 -25 -113h332l-20 -67h-316v-25q0 -51 2 -76h297l-20 -67h-264q8 -41 14 -62q29 -96 90 -180q59 -78 141 -127q84 -47 172 -47v-74q-109 0 -208 58q-94 53 -164 147q-66 92 -99.5 201.5t-33.5 226.5v25h-111v-25 q0 -133 39 -260t117 -233q94 -121 198 -179q121 -72 262 -71v-74q-152 0 -299 80q-135 78 -221 199q-88 121 -129 258q-23 68 -31 137h-120z" />
<glyph unicode="&#x25fc;" horiz-adv-x="1638" d="M0 0v1638h1638v-1638h-1638z" />
</font>
</defs>
</svg>
